<svg width="292" height="62" viewBox="0 0 292 62" fill="none" xmlns="http://www.w3.org/2000/svg">
<mask id="path-1-outside-1_284_240" maskUnits="userSpaceOnUse" x="-0.5" y="-1" width="294" height="64" fill="black">
<rect fill="white" x="-0.5" y="-1" width="294" height="64"/>
<path d="M23.716 46.896C19.172 46.896 15.172 45.936 11.716 44.016C8.26 42.0747 5.56133 39.3653 3.62 35.888C1.7 32.3893 0.74 28.2933 0.74 23.6C0.74 18.9067 1.732 14.8213 3.716 11.344C5.72133 7.84533 8.47333 5.136 11.972 3.216C15.4707 1.27466 19.4707 0.303997 23.972 0.303997C26.34 0.303997 28.5053 0.559998 30.468 1.072C32.4307 1.56267 34.1267 2.18133 35.556 2.928L34.66 10.736C33.0387 9.98933 31.364 9.38133 29.636 8.912C27.9293 8.42133 26.02 8.176 23.908 8.176C20.772 8.176 18.148 8.83733 16.036 10.16C13.9453 11.4827 12.3667 13.3067 11.3 15.632C10.2333 17.9573 9.7 20.6133 9.7 23.6C9.7 26.5867 10.2227 29.2427 11.268 31.568C12.3133 33.8933 13.8707 35.7173 15.94 37.04C18.0307 38.3627 20.6227 39.024 23.716 39.024C25.8707 39.024 27.8013 38.7893 29.508 38.32C31.2147 37.8507 32.932 37.232 34.66 36.464L35.556 44.272C33.8707 45.0613 32.0147 45.6907 29.988 46.16C27.9827 46.6507 25.892 46.896 23.716 46.896ZM44.412 46V14H51.836L52.028 17.392C52.8387 16.496 53.98 15.6 55.452 14.704C56.924 13.808 58.5347 13.36 60.284 13.36C60.796 13.36 61.2653 13.4027 61.692 13.488L61.116 21.296C60.6467 21.168 60.1773 21.0827 59.708 21.04C59.26 20.9973 58.812 20.976 58.364 20.976C57.02 20.976 55.7933 21.2853 54.684 21.904C53.5747 22.5227 52.796 23.28 52.348 24.176V46H44.412ZM83.5985 46.64C79.7372 46.64 76.5158 45.872 73.9345 44.336C71.3745 42.7787 69.4545 40.7307 68.1745 38.192C66.8945 35.632 66.2545 32.8373 66.2545 29.808C66.2545 26.8853 66.8518 24.1867 68.0465 21.712C69.2625 19.2373 71.0332 17.2533 73.3585 15.76C75.6838 14.2453 78.5212 13.488 81.8705 13.488C84.9425 13.488 87.5025 14.1173 89.5505 15.376C91.5985 16.6347 93.1345 18.32 94.1585 20.432C95.1825 22.5227 95.6945 24.8373 95.6945 27.376C95.6945 28.08 95.6518 28.7947 95.5665 29.52C95.4812 30.224 95.3532 30.96 95.1825 31.728H74.5105C74.8092 33.712 75.4278 35.3227 76.3665 36.56C77.3265 37.776 78.4892 38.672 79.8545 39.248C81.2412 39.824 82.7238 40.112 84.3025 40.112C86.1585 40.112 87.8865 39.8773 89.4865 39.408C91.0865 38.9173 92.5585 38.2773 93.9025 37.488L94.2865 44.208C93.0705 44.848 91.5558 45.4133 89.7425 45.904C87.9292 46.3947 85.8812 46.64 83.5985 46.64ZM74.7025 26.352H87.6305C87.6305 25.392 87.4492 24.432 87.0865 23.472C86.7238 22.4907 86.1158 21.6693 85.2625 21.008C84.4305 20.3467 83.2998 20.016 81.8705 20.016C79.8225 20.016 78.2118 20.6133 77.0385 21.808C75.8652 23.0027 75.0865 24.5173 74.7025 26.352ZM111.224 46.64C109.517 46.64 107.96 46.2667 106.552 45.52C105.144 44.752 104.024 43.6533 103.192 42.224C102.36 40.7947 101.944 39.0667 101.944 37.04C101.944 35.2267 102.36 33.68 103.192 32.4C104.045 31.0987 105.155 30.0213 106.52 29.168C107.907 28.2933 109.4 27.6107 111 27.12C112.621 26.608 114.211 26.2347 115.768 26C117.347 25.7653 118.733 25.6267 119.928 25.584C119.843 23.7493 119.373 22.416 118.52 21.584C117.667 20.752 116.216 20.336 114.168 20.336C112.739 20.336 111.341 20.5387 109.976 20.944C108.632 21.328 107.107 21.936 105.4 22.768L104.696 16.304C106.616 15.3653 108.536 14.6613 110.456 14.192C112.397 13.7227 114.36 13.488 116.344 13.488C118.733 13.488 120.792 13.9147 122.52 14.768C124.248 15.6213 125.581 16.9973 126.52 18.896C127.459 20.7733 127.928 23.2587 127.928 26.352V34.992C127.928 36.592 128.003 37.7547 128.152 38.48C128.301 39.184 128.579 39.632 128.984 39.824C129.389 40.016 129.976 40.112 130.744 40.112H131.768L131.064 46.64H128.184C126.989 46.64 125.923 46.48 124.984 46.16C124.067 45.8613 123.277 45.4347 122.616 44.88C121.955 44.3253 121.421 43.6747 121.016 42.928C119.971 44.1013 118.552 45.0187 116.76 45.68C114.989 46.32 113.144 46.64 111.224 46.64ZM114.552 40.56C115.256 40.56 116.131 40.3787 117.176 40.016C118.221 39.632 119.16 39.0453 119.992 38.256V30.96C118.499 31.024 117.005 31.2693 115.512 31.696C114.019 32.1227 112.771 32.752 111.768 33.584C110.765 34.416 110.264 35.4613 110.264 36.72C110.264 38.0213 110.605 38.992 111.288 39.632C111.971 40.2507 113.059 40.56 114.552 40.56ZM149.319 46.64C147.314 46.64 145.682 46.2347 144.423 45.424C143.164 44.592 142.236 43.536 141.639 42.256C141.042 40.976 140.743 39.6427 140.743 38.256V20.528H136.199L136.903 14H140.743V6.96L148.679 6.128V14H155.719V20.528H148.679V34.992C148.679 36.6133 148.775 37.7867 148.967 38.512C149.159 39.216 149.596 39.664 150.279 39.856C150.962 40.0267 152.05 40.112 153.543 40.112H155.719L155.015 46.64H149.319ZM164.087 46V14H172.023V46H164.087ZM164.087 9.136V1.2H172.023V9.136H164.087ZM191.43 46L179.142 14H186.95L194.822 36.144L202.694 14H210.502L198.214 46H191.43ZM217.612 46V14H225.548V46H217.612ZM217.612 9.136V1.2H225.548V9.136H217.612ZM246.619 46.64C244.614 46.64 242.982 46.2347 241.723 45.424C240.464 44.592 239.536 43.536 238.939 42.256C238.342 40.976 238.043 39.6427 238.043 38.256V20.528H233.499L234.203 14H238.043V6.96L245.979 6.128V14H253.019V20.528H245.979V34.992C245.979 36.6133 246.075 37.7867 246.267 38.512C246.459 39.216 246.896 39.664 247.579 39.856C248.262 40.0267 249.35 40.112 250.843 40.112H253.019L252.315 46.64H246.619ZM263.947 61.488L271.051 43.888L257.739 14H266.571L274.763 34.608L283.083 14H291.915L271.883 61.488H263.947Z"/>
</mask>
<path d="M11.716 44.016L11.2262 44.8879L11.2304 44.8902L11.716 44.016ZM3.62 35.888L2.74331 36.3691L2.74686 36.3755L3.62 35.888ZM3.716 11.344L2.84841 10.8467L2.84743 10.8484L3.716 11.344ZM11.972 3.216L12.4531 4.09268L12.4572 4.09041L11.972 3.216ZM30.468 1.072L30.2156 2.03967L30.2255 2.04214L30.468 1.072ZM35.556 2.928L36.5495 3.042L36.6278 2.35966L36.019 2.04165L35.556 2.928ZM34.66 10.736L34.2417 11.6443L35.496 12.222L35.6535 10.85L34.66 10.736ZM29.636 8.912L29.3597 9.87307L29.3668 9.8751L29.3739 9.87704L29.636 8.912ZM16.036 10.16L15.5052 9.31247L15.5014 9.31492L16.036 10.16ZM11.3 15.632L10.3911 15.2151V15.2151L11.3 15.632ZM11.268 31.568L12.1801 31.158L11.268 31.568ZM15.94 37.04L15.4014 37.8826L15.4054 37.8851L15.94 37.04ZM29.508 38.32L29.7732 39.2842L29.508 38.32ZM34.66 36.464L35.6535 36.35L35.4982 34.9971L34.2539 35.5502L34.66 36.464ZM35.556 44.272L35.9801 45.1776L36.6315 44.8725L36.5495 44.158L35.556 44.272ZM29.988 46.16L29.7624 45.1857L29.7503 45.1887L29.988 46.16ZM23.716 45.896C19.3163 45.896 15.4882 44.9677 12.2016 43.1418L11.2304 44.8902C14.8558 46.9043 19.0277 47.896 23.716 47.896V45.896ZM12.2058 43.1441C8.91135 41.2936 6.34502 38.7176 4.49314 35.4005L2.74686 36.3755C4.77765 40.013 7.60865 42.8558 11.2263 44.8879L12.2058 43.1441ZM4.49667 35.4069C2.67075 32.0797 1.74 28.1548 1.74 23.6H-0.26C-0.26 28.4318 0.729246 32.699 2.74333 36.3691L4.49667 35.4069ZM1.74 23.6C1.74 19.0503 2.70051 15.1417 4.58457 11.8396L2.84743 10.8484C0.763492 14.5009 -0.26 18.763 -0.26 23.6H1.74ZM4.58359 11.8413C6.49845 8.50045 9.11748 5.92319 12.4531 4.09267L11.4909 2.33933C7.82919 4.34881 4.94421 7.19021 2.84841 10.8467L4.58359 11.8413ZM12.4572 4.09041C15.7896 2.24132 19.6189 1.304 23.972 1.304V-0.696003C19.3225 -0.696003 15.1517 0.308011 11.4868 2.34159L12.4572 4.09041ZM23.972 1.304C26.2687 1.304 28.3477 1.55235 30.2156 2.03962L30.7204 0.104382C28.6629 -0.432353 26.4113 -0.696003 23.972 -0.696003V1.304ZM30.2255 2.04214C32.13 2.51828 33.7486 3.11208 35.093 3.81435L36.019 2.04165C34.5047 1.25059 32.7313 0.607046 30.7105 0.101856L30.2255 2.04214ZM34.5625 2.81399L33.6665 10.622L35.6535 10.85L36.5495 3.042L34.5625 2.81399ZM35.0783 9.82769C33.4064 9.05774 31.6795 8.43079 29.8981 7.94696L29.3739 9.87704C31.0485 10.3319 32.6709 10.9209 34.2417 11.6443L35.0783 9.82769ZM29.9123 7.95093C28.1007 7.4301 26.0964 7.176 23.908 7.176V9.176C25.9436 9.176 27.7579 9.41257 29.3597 9.87307L29.9123 7.95093ZM23.908 7.176C20.6325 7.176 17.8128 7.86737 15.5052 9.31248L16.5668 11.0075C18.4832 9.8073 20.9115 9.176 23.908 9.176V7.176ZM15.5014 9.31492C13.2413 10.7447 11.5355 12.7201 10.3911 15.2151L12.2089 16.0489C13.1978 13.8932 14.6493 12.2206 16.5706 11.0051L15.5014 9.31492ZM10.3911 15.2151C9.25517 17.6913 8.7 20.4933 8.7 23.6H10.7C10.7 20.7333 11.2115 18.2233 12.2089 16.0489L10.3911 15.2151ZM8.7 23.6C8.7 26.704 9.24354 29.5035 10.3559 31.978L12.1801 31.158C11.2018 28.9818 10.7 26.4693 10.7 23.6H8.7ZM10.3559 31.978C11.4778 34.4737 13.1617 36.451 15.4014 37.8826L16.4786 36.1974C14.5796 34.9837 13.1488 33.313 12.1801 31.158L10.3559 31.978ZM15.4054 37.8851C17.6917 39.3315 20.4806 40.024 23.716 40.024V38.024C20.7647 38.024 18.3696 37.3938 16.4746 36.1949L15.4054 37.8851ZM23.716 40.024C25.9416 40.024 27.9638 39.7818 29.7732 39.2842L29.2428 37.3558C27.6389 37.7969 25.7997 38.024 23.716 38.024V40.024ZM29.7732 39.2842C31.5312 38.8008 33.2956 38.1647 35.0661 37.3778L34.2539 35.5502C32.5685 36.2993 30.8982 36.9006 29.2428 37.3558L29.7732 39.2842ZM33.6665 36.578L34.5625 44.386L36.5495 44.158L35.6535 36.35L33.6665 36.578ZM35.1319 43.3664C33.517 44.1227 31.7285 44.7305 29.7624 45.1858L30.2136 47.1342C32.3008 46.6509 34.2243 46 35.9801 45.1776L35.1319 43.3664ZM29.7503 45.1887C27.8269 45.6593 25.8162 45.896 23.716 45.896V47.896C25.9678 47.896 28.1385 47.642 30.2257 47.1313L29.7503 45.1887ZM44.412 46H43.412V47H44.412V46ZM44.412 14V13H43.412V14H44.412ZM51.836 14L52.8344 13.9435L52.781 13H51.836V14ZM52.028 17.392L51.0296 17.4485L51.1648 19.8366L52.7695 18.0629L52.028 17.392ZM55.452 14.704L55.9719 15.5582H55.972L55.452 14.704ZM61.692 13.488L62.6893 13.5616L62.7543 12.6807L61.8881 12.5074L61.692 13.488ZM61.116 21.296L60.8529 22.2608L62.024 22.5802L62.1133 21.3696L61.116 21.296ZM59.708 21.04L59.6132 22.0355L59.6175 22.0359L59.708 21.04ZM54.684 21.904L55.1711 22.7774L54.684 21.904ZM52.348 24.176L51.4536 23.7288L51.348 23.9399V24.176H52.348ZM52.348 46V47H53.348V46H52.348ZM45.412 46V14H43.412V46H45.412ZM44.412 15H51.836V13H44.412V15ZM50.8376 14.0565L51.0296 17.4485L53.0264 17.3355L52.8344 13.9435L50.8376 14.0565ZM52.7695 18.0629C53.4945 17.2616 54.5503 16.4235 55.9719 15.5582L54.9321 13.8498C53.4097 14.7765 52.1828 15.7304 51.2865 16.7211L52.7695 18.0629ZM55.972 15.5582C57.2848 14.7591 58.7151 14.36 60.284 14.36V12.36C58.3542 12.36 56.5632 12.8569 54.9321 13.8498L55.972 15.5582ZM60.284 14.36C60.7414 14.36 61.1439 14.3982 61.4959 14.4686L61.8881 12.5074C61.3867 12.4071 60.8506 12.36 60.284 12.36V14.36ZM60.6947 13.4144L60.1187 21.2224L62.1133 21.3696L62.6893 13.5616L60.6947 13.4144ZM61.3791 20.3312C60.8551 20.1883 60.328 20.0922 59.7985 20.0441L59.6175 22.0359C60.0266 22.0731 60.4382 22.1477 60.8529 22.2608L61.3791 20.3312ZM59.8028 20.0445C59.3234 19.9988 58.8438 19.976 58.364 19.976V21.976C58.7802 21.976 59.1966 21.9958 59.6132 22.0355L59.8028 20.0445ZM58.364 19.976C56.8598 19.976 55.4639 20.3241 54.1969 21.0306L55.1711 22.7774C56.1228 22.2466 57.1802 21.976 58.364 21.976V19.976ZM54.1969 21.0306C52.9591 21.721 52.0128 22.6103 51.4536 23.7288L53.2424 24.6232C53.5792 23.9497 54.1903 23.3244 55.1711 22.7774L54.1969 21.0306ZM51.348 24.176V46H53.348V24.176H51.348ZM52.348 45H44.412V47H52.348V45ZM73.9345 44.336L73.4148 45.1904L73.4231 45.1954L73.9345 44.336ZM68.1745 38.192L67.2801 38.6392L67.2816 38.6422L68.1745 38.192ZM68.0465 21.712L67.149 21.271L67.146 21.2772L68.0465 21.712ZM73.3585 15.76L73.8989 16.6014L73.9043 16.5979L73.3585 15.76ZM89.5505 15.376L89.0269 16.228L89.5505 15.376ZM94.1585 20.432L93.2587 20.8683L93.2604 20.8719L94.1585 20.432ZM95.5665 29.52L96.5592 29.6403L96.5597 29.6368L95.5665 29.52ZM95.1825 31.728V32.728H95.9847L96.1587 31.9449L95.1825 31.728ZM74.5105 31.728V30.728H73.3487L73.5216 31.8769L74.5105 31.728ZM76.3665 36.56L75.5698 37.1644L75.5756 37.1721L75.5816 37.1796L76.3665 36.56ZM79.8545 39.248L79.4658 40.1694L79.4709 40.1715L79.8545 39.248ZM89.4865 39.408L89.768 40.3676L89.7797 40.3641L89.4865 39.408ZM93.9025 37.488L94.9009 37.431L94.8075 35.7968L93.3961 36.6257L93.9025 37.488ZM94.2865 44.208L94.7523 45.0929L95.3216 44.7933L95.2849 44.151L94.2865 44.208ZM89.7425 45.904L89.4813 44.9387L89.7425 45.904ZM74.7025 26.352L73.7237 26.1471L73.4715 27.352H74.7025V26.352ZM87.6305 26.352V27.352H88.6305V26.352H87.6305ZM87.0865 23.472L86.1485 23.8187L86.151 23.8254L87.0865 23.472ZM85.2625 21.008L84.6402 21.7909L84.6499 21.7984L85.2625 21.008ZM77.0385 21.808L76.3251 21.1073L77.0385 21.808ZM83.5985 45.64C79.8667 45.64 76.8343 44.8978 74.4459 43.4766L73.4231 45.1954C76.1974 46.8462 79.6076 47.64 83.5985 47.64V45.64ZM74.4542 43.4817C72.0449 42.016 70.2586 40.1043 69.0674 37.7418L67.2816 38.6422C68.6504 41.357 70.7041 43.5413 73.4148 45.1903L74.4542 43.4817ZM69.0689 37.7448C67.8624 35.3317 67.2545 32.6914 67.2545 29.808H65.2545C65.2545 32.9833 65.9266 35.9323 67.2801 38.6392L69.0689 37.7448ZM67.2545 29.808C67.2545 27.0261 67.822 24.4773 68.9471 22.1467L67.146 21.2772C65.8817 23.896 65.2545 26.7446 65.2545 29.808H67.2545ZM68.944 22.153C70.0795 19.8423 71.7265 17.9965 73.8989 16.6014L72.8181 14.9186C70.3399 16.5101 68.4455 18.6324 67.149 21.271L68.944 22.153ZM73.9043 16.5979C76.0363 15.2092 78.6744 14.488 81.8705 14.488V12.488C78.3679 12.488 75.3313 13.2815 72.8127 14.9221L73.9043 16.5979ZM81.8705 14.488C84.8083 14.488 87.1746 15.0896 89.0269 16.228L90.0741 14.524C87.8304 13.1451 85.0767 12.488 81.8705 12.488V14.488ZM89.0269 16.228C90.9166 17.3893 92.32 18.9322 93.2587 20.8683L95.0583 19.9957C93.949 17.7078 92.2804 15.88 90.0741 14.524L89.0269 16.228ZM93.2604 20.8719C94.2115 22.8135 94.6945 24.9758 94.6945 27.376H96.6945C96.6945 24.6989 96.1535 22.2318 95.0566 19.9921L93.2604 20.8719ZM94.6945 27.376C94.6945 28.0395 94.6543 28.7152 94.5734 29.4032L96.5597 29.6368C96.6494 28.8742 96.6945 28.1205 96.6945 27.376H94.6945ZM94.5738 29.3997C94.4928 30.0679 94.3707 30.7716 94.2063 31.5111L96.1587 31.9449C96.3357 31.1484 96.4696 30.3801 96.5592 29.6403L94.5738 29.3997ZM95.1825 30.728H74.5105V32.728H95.1825V30.728ZM73.5216 31.8769C73.8382 33.9794 74.5047 35.7604 75.5698 37.1644L77.1632 35.9556C76.351 34.885 75.7802 33.4446 75.4994 31.5791L73.5216 31.8769ZM75.5816 37.1796C76.6412 38.5218 77.9379 39.5248 79.4658 40.1694L80.2432 38.3266C79.0404 37.8192 78.0118 37.0302 77.1514 35.9404L75.5816 37.1796ZM79.4709 40.1715C80.9853 40.8006 82.5991 41.112 84.3025 41.112V39.112C82.8486 39.112 81.497 38.8474 80.2381 38.3245L79.4709 40.1715ZM84.3025 41.112C86.2431 41.112 88.0669 40.8666 89.768 40.3676L89.205 38.4484C87.7061 38.8881 86.0739 39.112 84.3025 39.112V41.112ZM89.7797 40.3641C91.4487 39.8522 92.993 39.1819 94.4089 38.3503L93.3961 36.6257C92.124 37.3728 90.7243 37.9825 89.1933 38.4519L89.7797 40.3641ZM92.9041 37.5451L93.2881 44.265L95.2849 44.151L94.9009 37.431L92.9041 37.5451ZM93.8208 43.3231C92.6886 43.919 91.2476 44.4608 89.4813 44.9387L90.0037 46.8693C91.864 46.3659 93.4525 45.777 94.7523 45.0929L93.8208 43.3231ZM89.4813 44.9387C87.7691 45.402 85.8112 45.64 83.5985 45.64V47.64C85.9512 47.64 88.0893 47.3873 90.0037 46.8693L89.4813 44.9387ZM74.7025 27.352H87.6305V25.352H74.7025V27.352ZM88.6305 26.352C88.6305 25.2632 88.4243 24.1837 88.022 23.1186L86.151 23.8254C86.474 24.6803 86.6305 25.5208 86.6305 26.352H88.6305ZM88.0245 23.1253C87.5948 21.9628 86.8713 20.9896 85.8751 20.2176L84.6499 21.7984C85.3604 22.349 85.8528 23.0186 86.1485 23.8186L88.0245 23.1253ZM85.8848 20.2252C84.8233 19.3815 83.4481 19.016 81.8705 19.016V21.016C83.1516 21.016 84.0377 21.3119 84.6403 21.7908L85.8848 20.2252ZM81.8705 19.016C79.618 19.016 77.7269 19.68 76.3251 21.1073L77.752 22.5087C78.6968 21.5467 80.027 21.016 81.8705 21.016V19.016ZM76.3251 21.1073C75.002 22.4544 74.1421 24.1483 73.7237 26.1471L75.6813 26.5569C76.0309 24.8864 76.7283 23.551 77.752 22.5087L76.3251 21.1073ZM106.552 45.52L106.073 46.398L106.083 46.4035L106.552 45.52ZM103.192 42.224L102.328 42.7271L103.192 42.224ZM103.192 32.4L102.356 31.8516L102.354 31.855L103.192 32.4ZM106.52 29.168L107.05 30.016L107.054 30.0138L106.52 29.168ZM111 27.12L111.293 28.0761L111.301 28.0736L111 27.12ZM115.768 26L115.621 25.0109L115.619 25.0112L115.768 26ZM119.928 25.584L119.964 26.5834L120.974 26.5473L120.927 25.5375L119.928 25.584ZM118.52 21.584L117.822 22.3L118.52 21.584ZM109.976 20.944L110.251 21.9056L110.261 21.9026L109.976 20.944ZM105.4 22.768L104.406 22.8763L104.56 24.2901L105.838 23.6669L105.4 22.768ZM104.696 16.304L104.257 15.4056L103.626 15.7141L103.702 16.4123L104.696 16.304ZM110.456 14.192L110.221 13.22L110.219 13.2206L110.456 14.192ZM122.52 14.768L122.963 13.8714V13.8714L122.52 14.768ZM126.52 18.896L125.624 19.3392L125.626 19.3432L126.52 18.896ZM128.152 38.48L127.173 38.6817L127.174 38.6875L128.152 38.48ZM128.984 39.824L128.556 40.7277L128.984 39.824ZM131.768 40.112L132.762 40.2192L132.882 39.112H131.768V40.112ZM131.064 46.64V47.64H131.962L132.058 46.7472L131.064 46.64ZM124.984 46.16L125.307 45.2134L125.294 45.2091L124.984 46.16ZM122.616 44.88L121.973 45.6462L122.616 44.88ZM121.016 42.928L121.895 42.4509L121.216 41.2003L120.269 42.2628L121.016 42.928ZM116.76 45.68L117.1 46.6205L117.106 46.6182L116.76 45.68ZM117.176 40.016L117.504 40.9608L117.512 40.9578L117.521 40.9547L117.176 40.016ZM119.992 38.256L120.68 38.9815L120.992 38.6857V38.256H119.992ZM119.992 30.96H120.992V29.9162L119.949 29.9609L119.992 30.96ZM115.512 31.696L115.237 30.7345H115.237L115.512 31.696ZM111.768 33.584L111.129 32.8144L111.768 33.584ZM111.288 39.632L110.604 40.3615L110.61 40.3673L110.616 40.373L111.288 39.632ZM111.224 45.64C109.669 45.64 108.274 45.3013 107.021 44.6365L106.083 46.4035C107.646 47.232 109.366 47.64 111.224 47.64V45.64ZM107.031 44.6421C105.788 43.9643 104.799 42.9977 104.056 41.7209L102.328 42.7271C103.249 44.309 104.5 45.5397 106.073 46.3979L107.031 44.6421ZM104.056 41.7209C103.331 40.4753 102.944 38.9296 102.944 37.04H100.944C100.944 39.2038 101.389 41.114 102.328 42.7271L104.056 41.7209ZM102.944 37.04C102.944 35.3832 103.322 34.0344 104.03 32.945L102.354 31.855C101.398 33.3256 100.944 35.0701 100.944 37.04H102.944ZM104.028 32.9484C104.8 31.7721 105.803 30.7955 107.05 30.016L105.99 28.32C104.506 29.2472 103.291 30.4253 102.356 31.8516L104.028 32.9484ZM107.054 30.0138C108.364 29.1873 109.776 28.5413 111.293 28.0761L110.707 26.1639C109.024 26.68 107.45 27.3993 105.986 28.3222L107.054 30.0138ZM111.301 28.0736C112.877 27.576 114.415 27.2151 115.917 26.9888L115.619 25.0112C114.006 25.2542 112.366 25.6399 110.699 26.1664L111.301 28.0736ZM115.915 26.9891C117.468 26.7583 118.816 26.6243 119.964 26.5834L119.892 24.5846C118.65 24.629 117.225 24.7724 115.621 25.0109L115.915 26.9891ZM120.927 25.5375C120.836 23.5822 120.33 21.9518 119.218 20.868L117.822 22.3C118.417 22.8802 118.849 23.9164 118.929 25.6305L120.927 25.5375ZM119.218 20.868C118.082 19.7606 116.303 19.336 114.168 19.336V21.336C116.129 21.336 117.251 21.7434 117.822 22.3L119.218 20.868ZM114.168 19.336C112.643 19.336 111.149 19.5525 109.691 19.9854L110.261 21.9026C111.533 21.5248 112.835 21.336 114.168 21.336V19.336ZM109.701 19.9825C108.285 20.3871 106.704 21.0199 104.962 21.8691L105.838 23.6669C107.51 22.8521 108.979 22.2689 110.251 21.9055L109.701 19.9825ZM106.394 22.6597L105.69 16.1957L103.702 16.4123L104.406 22.8763L106.394 22.6597ZM105.135 17.2024C106.996 16.2927 108.849 15.6144 110.693 15.1634L110.219 13.2206C108.223 13.7083 106.236 14.438 104.257 15.4056L105.135 17.2024ZM110.691 15.164C112.556 14.7131 114.44 14.488 116.344 14.488V12.488C114.28 12.488 112.239 12.7322 110.221 13.22L110.691 15.164ZM116.344 14.488C118.616 14.488 120.516 14.8936 122.077 15.6646L122.963 13.8714C121.068 12.9357 118.851 12.488 116.344 12.488V14.488ZM122.077 15.6646C123.589 16.411 124.772 17.6167 125.624 19.3392L127.416 18.4528C126.391 16.3779 124.907 14.8317 122.963 13.8714L122.077 15.6646ZM125.626 19.3432C126.47 21.0316 126.928 23.3461 126.928 26.352H128.928C128.928 23.1712 128.448 20.515 127.414 18.4488L125.626 19.3432ZM126.928 26.352V34.992H128.928V26.352H126.928ZM126.928 34.992C126.928 36.6004 127.001 37.8499 127.173 38.6817L129.131 38.2783C129.004 37.6594 128.928 36.5836 128.928 34.992H126.928ZM127.174 38.6875C127.349 39.5113 127.733 40.3379 128.556 40.7277L129.412 38.9203C129.409 38.9186 129.401 38.9146 129.388 38.9025C129.374 38.8896 129.351 38.8642 129.322 38.8176C129.262 38.7204 129.189 38.5501 129.13 38.2725L127.174 38.6875ZM128.556 40.7277C129.158 41.0131 129.919 41.112 130.744 41.112V39.112C130.033 39.112 129.62 39.0189 129.412 38.9203L128.556 40.7277ZM130.744 41.112H131.768V39.112H130.744V41.112ZM130.774 40.0048L130.07 46.5328L132.058 46.7472L132.762 40.2192L130.774 40.0048ZM131.064 45.64H128.184V47.64H131.064V45.64ZM128.184 45.64C127.077 45.64 126.123 45.4917 125.307 45.2135L124.661 47.1065C125.723 47.4683 126.901 47.64 128.184 47.64V45.64ZM125.294 45.2091C124.484 44.9455 123.811 44.577 123.259 44.1138L121.973 45.6462C122.744 46.2923 123.65 46.7772 124.674 47.1109L125.294 45.2091ZM123.259 44.1138C122.692 43.6385 122.239 43.0854 121.895 42.4509L120.137 43.4051C120.603 44.2639 121.217 45.0122 121.973 45.6462L123.259 44.1138ZM120.269 42.2628C119.354 43.29 118.085 44.1252 116.414 44.7418L117.106 46.6182C119.019 45.9122 120.587 44.9127 121.763 43.5932L120.269 42.2628ZM116.42 44.7395C114.761 45.3394 113.03 45.64 111.224 45.64V47.64C113.258 47.64 115.218 47.3006 117.1 46.6205L116.42 44.7395ZM114.552 41.56C115.413 41.56 116.406 41.3416 117.504 40.9608L116.848 39.0712C115.855 39.4158 115.099 39.56 114.552 39.56V41.56ZM117.521 40.9547C118.698 40.5223 119.753 39.8616 120.68 38.9815L119.304 37.5305C118.567 38.229 117.745 38.7417 116.831 39.0773L117.521 40.9547ZM120.992 38.256V30.96H118.992V38.256H120.992ZM119.949 29.9609C118.374 30.0284 116.803 30.2871 115.237 30.7345L115.787 32.6575C117.207 32.2516 118.623 32.0196 120.035 31.9591L119.949 29.9609ZM115.237 30.7345C113.636 31.192 112.257 31.8786 111.129 32.8144L112.407 34.3536C113.284 33.6254 114.401 33.0533 115.787 32.6575L115.237 30.7345ZM111.129 32.8144C109.907 33.8287 109.264 35.152 109.264 36.72H111.264C111.264 35.7707 111.624 35.0033 112.407 34.3536L111.129 32.8144ZM109.264 36.72C109.264 38.1867 109.651 39.468 110.604 40.3615L111.972 38.9025C111.56 38.516 111.264 37.8559 111.264 36.72H109.264ZM110.616 40.373C111.568 41.2353 112.956 41.56 114.552 41.56V39.56C113.161 39.56 112.373 39.266 111.96 38.891L110.616 40.373ZM144.423 45.424L143.872 46.2583L143.882 46.2647L144.423 45.424ZM141.639 42.256L142.545 41.8331L141.639 42.256ZM140.743 20.528H141.743V19.528H140.743V20.528ZM136.199 20.528L135.205 20.4208L135.085 21.528H136.199V20.528ZM136.903 14V13H136.005L135.909 13.8928L136.903 14ZM140.743 14V15H141.743V14H140.743ZM140.743 6.96L140.639 5.96545L139.743 6.05936V6.96H140.743ZM148.679 6.128H149.679V5.01768L148.575 5.13345L148.679 6.128ZM148.679 14H147.679V15H148.679V14ZM155.719 14H156.719V13H155.719V14ZM155.719 20.528V21.528H156.719V20.528H155.719ZM148.679 20.528V19.528H147.679V20.528H148.679ZM148.967 38.512L148 38.7679L148.002 38.7751L148.967 38.512ZM150.279 39.856L150.008 40.8186L150.022 40.8226L150.036 40.8261L150.279 39.856ZM155.719 40.112L156.713 40.2192L156.833 39.112H155.719V40.112ZM155.015 46.64V47.64H155.913L156.009 46.7472L155.015 46.64ZM149.319 45.64C147.442 45.64 146.015 45.2602 144.964 44.5833L143.882 46.2647C145.348 47.2091 147.185 47.64 149.319 47.64V45.64ZM144.974 44.5898C143.859 43.8523 143.059 42.9344 142.545 41.8331L140.733 42.6789C141.414 44.1376 142.47 45.3317 143.872 46.2582L144.974 44.5898ZM142.545 41.8331C142.008 40.683 141.743 39.4938 141.743 38.256H139.743C139.743 39.7916 140.075 41.269 140.733 42.6789L142.545 41.8331ZM141.743 38.256V20.528H139.743V38.256H141.743ZM140.743 19.528H136.199V21.528H140.743V19.528ZM137.193 20.6352L137.897 14.1072L135.909 13.8928L135.205 20.4208L137.193 20.6352ZM136.903 15H140.743V13H136.903V15ZM141.743 14V6.96H139.743V14H141.743ZM140.847 7.95455L148.783 7.12255L148.575 5.13345L140.639 5.96545L140.847 7.95455ZM147.679 6.128V14H149.679V6.128H147.679ZM148.679 15H155.719V13H148.679V15ZM154.719 14V20.528H156.719V14H154.719ZM155.719 19.528H148.679V21.528H155.719V19.528ZM147.679 20.528V34.992H149.679V20.528H147.679ZM147.679 34.992C147.679 36.6238 147.773 37.9084 148 38.7679L149.934 38.2561C149.777 37.6649 149.679 36.6029 149.679 34.992H147.679ZM148.002 38.7751C148.283 39.806 148.976 40.5282 150.008 40.8186L150.55 38.8933C150.217 38.7998 150.035 38.626 149.932 38.2489L148.002 38.7751ZM150.036 40.8261C150.846 41.0285 152.038 41.112 153.543 41.112V39.112C152.061 39.112 151.078 39.0249 150.522 38.8859L150.036 40.8261ZM153.543 41.112H155.719V39.112H153.543V41.112ZM154.725 40.0048L154.021 46.5328L156.009 46.7472L156.713 40.2192L154.725 40.0048ZM155.015 45.64H149.319V47.64H155.015V45.64ZM164.087 46H163.087V47H164.087V46ZM164.087 14V13H163.087V14H164.087ZM172.023 14H173.023V13H172.023V14ZM172.023 46V47H173.023V46H172.023ZM164.087 9.136H163.087V10.136H164.087V9.136ZM164.087 1.2V0.199997H163.087V1.2H164.087ZM172.023 1.2H173.023V0.199997H172.023V1.2ZM172.023 9.136V10.136H173.023V9.136H172.023ZM165.087 46V14H163.087V46H165.087ZM164.087 15H172.023V13H164.087V15ZM171.023 14V46H173.023V14H171.023ZM172.023 45H164.087V47H172.023V45ZM165.087 9.136V1.2H163.087V9.136H165.087ZM164.087 2.2H172.023V0.199997H164.087V2.2ZM171.023 1.2V9.136H173.023V1.2H171.023ZM172.023 8.136H164.087V10.136H172.023V8.136ZM191.43 46L190.496 46.3585L190.743 47H191.43V46ZM179.142 14V13H177.687L178.208 14.3585L179.142 14ZM186.95 14L187.892 13.665L187.656 13H186.95V14ZM194.822 36.144L193.88 36.479L194.822 39.1295L195.764 36.479L194.822 36.144ZM202.694 14V13H201.988L201.752 13.665L202.694 14ZM210.502 14L211.436 14.3585L211.957 13H210.502V14ZM198.214 46V47H198.901L199.148 46.3585L198.214 46ZM192.364 45.6415L180.076 13.6415L178.208 14.3585L190.496 46.3585L192.364 45.6415ZM179.142 15H186.95V13H179.142V15ZM186.008 14.335L193.88 36.479L195.764 35.809L187.892 13.665L186.008 14.335ZM195.764 36.479L203.636 14.335L201.752 13.665L193.88 35.809L195.764 36.479ZM202.694 15H210.502V13H202.694V15ZM209.568 13.6415L197.28 45.6415L199.148 46.3585L211.436 14.3585L209.568 13.6415ZM198.214 45H191.43V47H198.214V45ZM217.612 46H216.612V47H217.612V46ZM217.612 14V13H216.612V14H217.612ZM225.548 14H226.548V13H225.548V14ZM225.548 46V47H226.548V46H225.548ZM217.612 9.136H216.612V10.136H217.612V9.136ZM217.612 1.2V0.199997H216.612V1.2H217.612ZM225.548 1.2H226.548V0.199997H225.548V1.2ZM225.548 9.136V10.136H226.548V9.136H225.548ZM218.612 46V14H216.612V46H218.612ZM217.612 15H225.548V13H217.612V15ZM224.548 14V46H226.548V14H224.548ZM225.548 45H217.612V47H225.548V45ZM218.612 9.136V1.2H216.612V9.136H218.612ZM217.612 2.2H225.548V0.199997H217.612V2.2ZM224.548 1.2V9.136H226.548V1.2H224.548ZM225.548 8.136H217.612V10.136H225.548V8.136ZM241.723 45.424L241.172 46.2583L241.182 46.2647L241.723 45.424ZM238.939 42.256L239.845 41.8331L238.939 42.256ZM238.043 20.528H239.043V19.528H238.043V20.528ZM233.499 20.528L232.505 20.4208L232.385 21.528H233.499V20.528ZM234.203 14V13H233.305L233.209 13.8928L234.203 14ZM238.043 14V15H239.043V14H238.043ZM238.043 6.96L237.939 5.96545L237.043 6.05936V6.96H238.043ZM245.979 6.128H246.979V5.01768L245.875 5.13345L245.979 6.128ZM245.979 14H244.979V15H245.979V14ZM253.019 14H254.019V13H253.019V14ZM253.019 20.528V21.528H254.019V20.528H253.019ZM245.979 20.528V19.528H244.979V20.528H245.979ZM246.267 38.512L245.3 38.7679L245.302 38.7751L246.267 38.512ZM247.579 39.856L247.308 40.8186L247.322 40.8226L247.336 40.8261L247.579 39.856ZM253.019 40.112L254.013 40.2192L254.133 39.112H253.019V40.112ZM252.315 46.64V47.64H253.213L253.309 46.7472L252.315 46.64ZM246.619 45.64C244.742 45.64 243.315 45.2602 242.264 44.5833L241.182 46.2647C242.648 47.2091 244.485 47.64 246.619 47.64V45.64ZM242.274 44.5898C241.159 43.8523 240.359 42.9344 239.845 41.8331L238.033 42.6789C238.714 44.1376 239.77 45.3317 241.172 46.2582L242.274 44.5898ZM239.845 41.8331C239.308 40.683 239.043 39.4938 239.043 38.256H237.043C237.043 39.7916 237.375 41.269 238.033 42.6789L239.845 41.8331ZM239.043 38.256V20.528H237.043V38.256H239.043ZM238.043 19.528H233.499V21.528H238.043V19.528ZM234.493 20.6352L235.197 14.1072L233.209 13.8928L232.505 20.4208L234.493 20.6352ZM234.203 15H238.043V13H234.203V15ZM239.043 14V6.96H237.043V14H239.043ZM238.147 7.95455L246.083 7.12255L245.875 5.13345L237.939 5.96545L238.147 7.95455ZM244.979 6.128V14H246.979V6.128H244.979ZM245.979 15H253.019V13H245.979V15ZM252.019 14V20.528H254.019V14H252.019ZM253.019 19.528H245.979V21.528H253.019V19.528ZM244.979 20.528V34.992H246.979V20.528H244.979ZM244.979 34.992C244.979 36.6238 245.073 37.9084 245.3 38.7679L247.234 38.2561C247.077 37.6649 246.979 36.6029 246.979 34.992H244.979ZM245.302 38.7751C245.583 39.806 246.276 40.5282 247.308 40.8186L247.85 38.8933C247.517 38.7998 247.335 38.626 247.232 38.2489L245.302 38.7751ZM247.336 40.8261C248.146 41.0285 249.338 41.112 250.843 41.112V39.112C249.361 39.112 248.378 39.0249 247.822 38.8859L247.336 40.8261ZM250.843 41.112H253.019V39.112H250.843V41.112ZM252.025 40.0048L251.321 46.5328L253.309 46.7472L254.013 40.2192L252.025 40.0048ZM252.315 45.64H246.619V47.64H252.315V45.64ZM263.947 61.488L263.02 61.1137L262.465 62.488H263.947V61.488ZM271.051 43.888L271.978 44.2623L272.137 43.8688L271.964 43.4811L271.051 43.888ZM257.739 14V13H256.199L256.826 14.4069L257.739 14ZM266.571 14L267.5 13.6306L267.25 13H266.571V14ZM274.763 34.608L273.834 34.9774L274.756 37.297L275.69 34.9824L274.763 34.608ZM283.083 14V13H282.408L282.156 13.6256L283.083 14ZM291.915 14L292.836 14.3887L293.422 13H291.915V14ZM271.883 61.488V62.488H272.546L272.804 61.8767L271.883 61.488ZM264.874 61.8623L271.978 44.2623L270.124 43.5137L263.02 61.1137L264.874 61.8623ZM271.964 43.4811L258.652 13.5931L256.826 14.4069L270.138 44.2949L271.964 43.4811ZM257.739 15H266.571V13H257.739V15ZM265.642 14.3694L273.834 34.9774L275.692 34.2386L267.5 13.6306L265.642 14.3694ZM275.69 34.9824L284.01 14.3744L282.156 13.6256L273.836 34.2336L275.69 34.9824ZM283.083 15H291.915V13H283.083V15ZM290.994 13.6113L270.962 61.0993L272.804 61.8767L292.836 14.3887L290.994 13.6113ZM271.883 60.488H263.947V62.488H271.883V60.488Z" fill="white" mask="url(#path-1-outside-1_284_240)"/>
</svg>
