<svg width="449" height="64" viewBox="0 0 449 64" fill="none" xmlns="http://www.w3.org/2000/svg">
<mask id="path-1-outside-1_284_239" maskUnits="userSpaceOnUse" x="-0.602539" y="-1" width="451" height="66" fill="black">
<rect fill="white" x="-0.602539" y="-1" width="451" height="66"/>
<path d="M15.3175 48.896C13.5041 48.896 11.6375 48.7147 9.71746 48.352C7.79746 48.0107 6.01613 47.5947 4.37346 47.104C2.73079 46.592 1.42946 46.1013 0.469461 45.632L1.42946 36.928C2.92279 37.6533 4.48013 38.3253 6.10146 38.944C7.72279 39.5627 9.3868 40.064 11.0935 40.448C12.8001 40.832 14.5281 41.024 16.2775 41.024C18.4535 41.024 20.2028 40.5973 21.5255 39.744C22.8481 38.8907 23.5095 37.5893 23.5095 35.84C23.5095 34.496 23.1361 33.4187 22.3895 32.608C21.6428 31.776 20.5015 31.04 18.9655 30.4C17.4295 29.7387 15.4668 28.992 13.0775 28.16C10.6881 27.328 8.54413 26.3893 6.64546 25.344C4.74679 24.2773 3.24279 22.9333 2.13346 21.312C1.02413 19.6907 0.469461 17.6213 0.469461 15.104C0.469461 12.6293 1.07746 10.432 2.29346 8.512C3.50946 6.57066 5.32279 5.056 7.73346 3.968C10.1655 2.85866 13.1841 2.304 16.7895 2.304C19.5201 2.304 22.1228 2.61333 24.5975 3.232C27.0721 3.82933 29.1841 4.48 30.9335 5.184L30.1015 13.568C27.5841 12.4373 25.2161 11.584 22.9975 11.008C20.8001 10.4107 18.5601 10.112 16.2775 10.112C13.8881 10.112 12.0428 10.5067 10.7415 11.296C9.44013 12.0853 8.78946 13.2693 8.78946 14.848C8.78946 16.1067 9.15213 17.12 9.87746 17.888C10.6028 18.656 11.6375 19.3173 12.9815 19.872C14.3255 20.4053 15.9361 20.9707 17.8135 21.568C21.0561 22.592 23.7761 23.7227 25.9735 24.96C28.1921 26.176 29.8561 27.6587 30.9655 29.408C32.0961 31.136 32.6615 33.28 32.6615 35.84C32.6615 37.12 32.4588 38.5173 32.0535 40.032C31.6481 41.5253 30.8481 42.944 29.6535 44.288C28.4588 45.632 26.7095 46.7413 24.4055 47.616C22.1228 48.4693 19.0935 48.896 15.3175 48.896ZM40.9955 48V-3.8147e-06H48.9315V29.12L58.8515 16H67.8115L56.1635 31.36L68.0675 48H59.1075L48.9315 33.792V48H40.9955ZM75.322 48V16H83.258V48H75.322ZM75.322 11.136V3.2H83.258V11.136H75.322ZM102.089 48.64C100.19 48.64 98.633 48.2667 97.417 47.52C96.2223 46.752 95.337 45.7387 94.761 44.48C94.185 43.2 93.897 41.792 93.897 40.256V-3.8147e-06H101.833V36.992C101.833 38.6987 101.929 39.9147 102.121 40.64C102.334 41.344 102.718 41.7707 103.273 41.92C103.828 42.048 104.628 42.112 105.673 42.112L104.969 48.64H102.089ZM122.101 48.64C120.203 48.64 118.645 48.2667 117.429 47.52C116.235 46.752 115.349 45.7387 114.773 44.48C114.197 43.2 113.909 41.792 113.909 40.256V-3.8147e-06H121.845V36.992C121.845 38.6987 121.941 39.9147 122.133 40.64C122.347 41.344 122.731 41.7707 123.285 41.92C123.84 42.048 124.64 42.112 125.685 42.112L124.981 48.64H122.101ZM149.033 48.64C145.172 48.64 141.951 47.872 139.369 46.336C136.809 44.7787 134.889 42.7307 133.609 40.192C132.329 37.632 131.689 34.8373 131.689 31.808C131.689 28.8853 132.287 26.1867 133.481 23.712C134.697 21.2373 136.468 19.2533 138.793 17.76C141.119 16.2453 143.956 15.488 147.305 15.488C150.377 15.488 152.937 16.1173 154.985 17.376C157.033 18.6347 158.569 20.32 159.593 22.432C160.617 24.5227 161.129 26.8373 161.129 29.376C161.129 30.08 161.087 30.7947 161.001 31.52C160.916 32.224 160.788 32.96 160.617 33.728H139.945C140.244 35.712 140.863 37.3227 141.801 38.56C142.761 39.776 143.924 40.672 145.289 41.248C146.676 41.824 148.159 42.112 149.737 42.112C151.593 42.112 153.321 41.8773 154.921 41.408C156.521 40.9173 157.993 40.2773 159.337 39.488L159.721 46.208C158.505 46.848 156.991 47.4133 155.177 47.904C153.364 48.3947 151.316 48.64 149.033 48.64ZM140.137 28.352H153.065C153.065 27.392 152.884 26.432 152.521 25.472C152.159 24.4907 151.551 23.6693 150.697 23.008C149.865 22.3467 148.735 22.016 147.305 22.016C145.257 22.016 143.647 22.6133 142.473 23.808C141.3 25.0027 140.521 26.5173 140.137 28.352ZM182.675 48.64C179.432 48.64 176.702 47.8827 174.483 46.368C172.286 44.8533 170.622 42.8373 169.491 40.32C168.382 37.8027 167.827 35.0507 167.827 32.064C167.827 29.0773 168.382 26.3253 169.491 23.808C170.622 21.2907 172.286 19.2747 174.483 17.76C176.702 16.2453 179.432 15.488 182.675 15.488C185.022 15.488 187.006 15.8827 188.627 16.672C190.248 17.44 191.678 18.432 192.915 19.648L190.995 21.312V-3.8147e-06H198.931V48H191.443L191.059 42.56L193.363 44.224C191.87 45.5893 190.323 46.6667 188.723 47.456C187.123 48.2453 185.107 48.64 182.675 48.64ZM183.827 42.112C185.576 42.112 187.006 41.6853 188.115 40.832C189.224 39.9787 190.046 38.8053 190.579 37.312C191.112 35.7973 191.379 34.048 191.379 32.064C191.379 30.08 191.112 28.3413 190.579 26.848C190.046 25.3333 189.224 24.1493 188.115 23.296C187.006 22.4427 185.576 22.016 183.827 22.016C182.163 22.016 180.744 22.4427 179.571 23.296C178.398 24.1493 177.502 25.3333 176.883 26.848C176.264 28.3413 175.955 30.08 175.955 32.064C175.955 34.048 176.264 35.7973 176.883 37.312C177.502 38.8053 178.398 39.9787 179.571 40.832C180.744 41.6853 182.163 42.112 183.827 42.112ZM228.3 48V3.2H256.972V11.136H236.684V20.672H252.428V28.608H236.684V40.064H257.612V48H228.3ZM263.587 48L274.211 32L263.587 16H273.059L278.883 25.28L284.259 16H293.731L283.107 32L293.731 48H284.259L278.435 38.72L273.059 48H263.587ZM301.297 63.488V16H307.697L309.233 21.312L306.865 20.48C308.337 18.9653 309.937 17.76 311.665 16.864C313.393 15.9467 315.505 15.488 318.001 15.488C321.137 15.488 323.772 16.2453 325.905 17.76C328.038 19.2747 329.649 21.2907 330.737 23.808C331.846 26.3253 332.401 29.0773 332.401 32.064C332.401 35.0507 331.846 37.8027 330.737 40.32C329.649 42.8373 328.038 44.8533 325.905 46.368C323.772 47.8827 321.137 48.64 318.001 48.64C315.505 48.64 313.478 48.2987 311.921 47.616C310.364 46.9333 308.785 45.8453 307.185 44.352L309.233 42.752V63.488H301.297ZM316.785 42.112C319.153 42.112 320.988 41.184 322.289 39.328C323.612 37.4507 324.273 35.0293 324.273 32.064C324.273 29.0773 323.612 26.656 322.289 24.8C320.988 22.944 319.153 22.016 316.785 22.016C314.95 22.016 313.446 22.4427 312.273 23.296C311.1 24.1493 310.236 25.3333 309.681 26.848C309.126 28.3413 308.849 30.08 308.849 32.064C308.849 34.048 309.126 35.7973 309.681 37.312C310.236 38.8053 311.1 39.9787 312.273 40.832C313.446 41.6853 314.95 42.112 316.785 42.112ZM356.546 48.64C352.685 48.64 349.463 47.872 346.882 46.336C344.322 44.7787 342.402 42.7307 341.122 40.192C339.842 37.632 339.202 34.8373 339.202 31.808C339.202 28.8853 339.799 26.1867 340.994 23.712C342.21 21.2373 343.981 19.2533 346.306 17.76C348.631 16.2453 351.469 15.488 354.818 15.488C357.89 15.488 360.45 16.1173 362.498 17.376C364.546 18.6347 366.082 20.32 367.106 22.432C368.13 24.5227 368.642 26.8373 368.642 29.376C368.642 30.08 368.599 30.7947 368.514 31.52C368.429 32.224 368.301 32.96 368.13 33.728H347.458C347.757 35.712 348.375 37.3227 349.314 38.56C350.274 39.776 351.437 40.672 352.802 41.248C354.189 41.824 355.671 42.112 357.25 42.112C359.106 42.112 360.834 41.8773 362.434 41.408C364.034 40.9173 365.506 40.2773 366.85 39.488L367.234 46.208C366.018 46.848 364.503 47.4133 362.69 47.904C360.877 48.3947 358.829 48.64 356.546 48.64ZM347.65 28.352H360.578C360.578 27.392 360.397 26.432 360.034 25.472C359.671 24.4907 359.063 23.6693 358.21 23.008C357.378 22.3467 356.247 22.016 354.818 22.016C352.77 22.016 351.159 22.6133 349.986 23.808C348.813 25.0027 348.034 26.5173 347.65 28.352ZM377.259 48V16H384.683L384.875 19.392C385.686 18.496 386.827 17.6 388.299 16.704C389.771 15.808 391.382 15.36 393.131 15.36C393.643 15.36 394.113 15.4027 394.539 15.488L393.963 23.296C393.494 23.168 393.025 23.0827 392.555 23.04C392.107 22.9973 391.659 22.976 391.211 22.976C389.867 22.976 388.641 23.2853 387.531 23.904C386.422 24.5227 385.643 25.28 385.195 26.176V48H377.259ZM412.016 48.64C410.011 48.64 408.379 48.2347 407.12 47.424C405.862 46.592 404.934 45.536 404.336 44.256C403.739 42.976 403.44 41.6427 403.44 40.256V22.528H398.896L399.6 16H403.44V8.96L411.376 8.128V16H418.416V22.528H411.376V36.992C411.376 38.6133 411.472 39.7867 411.664 40.512C411.856 41.216 412.294 41.664 412.976 41.856C413.659 42.0267 414.747 42.112 416.24 42.112H418.416L417.712 48.64H412.016ZM435.872 48.64C433.76 48.64 431.851 48.4373 430.144 48.032C428.459 47.6267 426.763 47.04 425.056 46.272L425.76 39.488C427.403 40.448 429.014 41.2267 430.592 41.824C432.192 42.4 433.867 42.688 435.616 42.688C437.195 42.688 438.4 42.432 439.232 41.92C440.064 41.408 440.48 40.5973 440.48 39.488C440.48 38.656 440.256 37.9733 439.808 37.44C439.382 36.9067 438.731 36.4267 437.856 36C436.982 35.5733 435.894 35.1147 434.592 34.624C432.63 33.8987 430.955 33.1093 429.568 32.256C428.203 31.4027 427.158 30.3787 426.432 29.184C425.728 27.968 425.376 26.4747 425.376 24.704C425.376 22.8693 425.856 21.248 426.816 19.84C427.776 18.432 429.142 17.3333 430.912 16.544C432.683 15.7547 434.784 15.36 437.216 15.36C439.243 15.36 441.056 15.584 442.656 16.032C444.278 16.48 445.771 17.088 447.136 17.856L446.432 24.64C445.003 23.6373 443.563 22.816 442.112 22.176C440.662 21.5147 439.072 21.184 437.344 21.184C435.979 21.184 434.923 21.4613 434.176 22.016C433.43 22.5707 433.056 23.36 433.056 24.384C433.056 25.6213 433.579 26.5493 434.624 27.168C435.67 27.7867 437.344 28.544 439.648 29.44C441.142 30.016 442.432 30.6133 443.52 31.232C444.63 31.8507 445.547 32.5333 446.272 33.28C446.998 34.0267 447.531 34.88 447.872 35.84C448.235 36.7787 448.416 37.8667 448.416 39.104C448.416 41.1307 447.926 42.8587 446.944 44.288C445.984 45.696 444.566 46.7733 442.688 47.52C440.832 48.2667 438.56 48.64 435.872 48.64Z"/>
</mask>
<path d="M9.71746 48.352L9.90308 47.3693L9.8925 47.3674L9.71746 48.352ZM4.37346 47.104L4.07587 48.0588L4.08726 48.0622L4.37346 47.104ZM0.469461 45.632L-0.524512 45.5224L-0.601618 46.2215L0.0302508 46.5304L0.469461 45.632ZM1.42946 36.928L1.86636 36.0285L0.590934 35.409L0.435488 36.8184L1.42946 36.928ZM6.10146 38.944L6.45797 38.0097L6.10146 38.944ZM11.0935 40.448L11.313 39.4724L11.0935 40.448ZM21.5255 39.744L20.9833 38.9037H20.9833L21.5255 39.744ZM22.3895 32.608L21.6452 33.276L21.6539 33.2855L22.3895 32.608ZM18.9655 30.4L18.57 31.3185L18.5808 31.3231L18.9655 30.4ZM13.0775 28.16L12.7486 29.1044H12.7486L13.0775 28.16ZM6.64546 25.344L6.15565 26.2159L6.16317 26.22L6.64546 25.344ZM2.13346 21.312L2.95877 20.7473L2.13346 21.312ZM2.29346 8.512L3.13829 9.04706L3.14094 9.04283L2.29346 8.512ZM7.73346 3.968L8.14484 4.87947L8.14847 4.87782L7.73346 3.968ZM24.5975 3.232L24.3549 4.20217L24.3628 4.20408L24.5975 3.232ZM30.9335 5.184L31.9286 5.28275L32.0026 4.53634L31.3068 4.2563L30.9335 5.184ZM30.1015 13.568L29.6917 14.4802L30.9594 15.0496L31.0966 13.6667L30.1015 13.568ZM22.9975 11.008L22.7351 11.973L22.7462 11.9759L22.9975 11.008ZM10.7415 11.296L10.2228 10.441H10.2228L10.7415 11.296ZM12.9815 19.872L12.5999 20.7965L12.6126 20.8015L12.9815 19.872ZM17.8135 21.568L17.5103 22.5209L17.5123 22.5216L17.8135 21.568ZM25.9735 24.96L25.4828 25.8314L25.4928 25.8369L25.9735 24.96ZM30.9655 29.408L30.121 29.9435L30.1248 29.9496L30.1287 29.9555L30.9655 29.408ZM32.0535 40.032L33.0186 40.294L33.0195 40.2905L32.0535 40.032ZM29.6535 44.288L30.4009 44.9524L29.6535 44.288ZM24.4055 47.616L24.7556 48.5527L24.7604 48.5509L24.4055 47.616ZM15.3175 47.896C13.571 47.896 11.7666 47.7214 9.90307 47.3694L9.53185 49.3346C11.5084 49.708 13.4373 49.896 15.3175 49.896V47.896ZM9.8925 47.3674C8.00503 47.0319 6.26125 46.6242 4.65967 46.1458L4.08726 48.0622C5.77101 48.5651 7.58989 48.9894 9.54243 49.3366L9.8925 47.3674ZM4.67103 46.1493C3.05147 45.6445 1.80401 45.1713 0.908671 44.7336L0.0302508 46.5304C1.05492 47.0313 2.41012 47.5395 4.07589 48.0587L4.67103 46.1493ZM1.46343 45.7416L2.42343 37.0376L0.435488 36.8184L-0.524512 45.5224L1.46343 45.7416ZM0.992557 37.8275C2.51332 38.5662 4.09755 39.2497 5.74496 39.8783L6.45797 38.0097C4.8627 37.401 3.33227 36.7405 1.86636 36.0285L0.992557 37.8275ZM5.74496 39.8783C7.41127 40.5141 9.12107 41.0292 10.874 41.4236L11.313 39.4724C9.65252 39.0988 8.03432 38.6112 6.45797 38.0097L5.74496 39.8783ZM10.874 41.4236C12.6527 41.8238 14.4543 42.024 16.2775 42.024V40.024C14.602 40.024 12.9476 39.8402 11.313 39.4724L10.874 41.4236ZM16.2775 42.024C18.5748 42.024 20.5326 41.5746 22.0676 40.5843L20.9833 38.9037C19.873 39.62 18.3321 40.024 16.2775 40.024V42.024ZM22.0676 40.5843C23.7114 39.5238 24.5095 37.8842 24.5095 35.84H22.5095C22.5095 37.2944 21.9849 38.2575 20.9833 38.9037L22.0676 40.5843ZM24.5095 35.84C24.5095 34.3029 24.0773 32.9644 23.125 31.9305L21.6539 33.2855C22.195 33.8729 22.5095 34.6891 22.5095 35.84H24.5095ZM23.1337 31.9401C22.2511 30.9567 20.962 30.1486 19.3501 29.4769L18.5808 31.3231C20.0409 31.9314 21.0345 32.5953 21.6452 33.2759L23.1337 31.9401ZM19.3609 29.4815C17.795 28.8073 15.808 28.0519 13.4063 27.2156L12.7486 29.1044C15.1256 29.9321 17.0639 30.67 18.57 31.3185L19.3609 29.4815ZM13.4063 27.2156C11.0614 26.3991 8.96995 25.4822 7.12776 24.468L6.16317 26.22C8.11831 27.2964 10.3148 28.2569 12.7486 29.1044L13.4063 27.2156ZM7.13526 24.4722C5.35582 23.4725 3.97229 22.2286 2.95877 20.7473L1.30815 21.8767C2.5133 23.6381 4.13777 25.0822 6.15566 26.2158L7.13526 24.4722ZM2.95877 20.7473C1.99143 19.3335 1.46946 17.4763 1.46946 15.104H-0.530539C-0.530539 17.7664 0.0568204 20.0478 1.30815 21.8767L2.95877 20.7473ZM1.46946 15.104C1.46946 12.8013 2.03262 10.7928 3.13828 9.04705L1.44864 7.97695C0.122306 10.0712 -0.530539 12.4574 -0.530539 15.104H1.46946ZM3.14094 9.04283C4.23681 7.29328 5.88536 5.89923 8.14483 4.87947L7.32209 3.05653C4.76023 4.21277 2.78211 5.84805 1.44599 7.98116L3.14094 9.04283ZM8.14847 4.87782C10.4131 3.84482 13.2801 3.304 16.7895 3.304V1.304C13.0882 1.304 9.9178 1.87251 7.31846 3.05818L8.14847 4.87782ZM16.7895 3.304C19.4441 3.304 21.965 3.60465 24.3549 4.20214L24.84 2.26186C22.2806 1.62202 19.5962 1.304 16.7895 1.304V3.304ZM24.3628 4.20408C26.8054 4.79367 28.8684 5.43086 30.5601 6.11169L31.3068 4.2563C29.4999 3.52913 27.3388 2.86499 24.8321 2.25992L24.3628 4.20408ZM29.9384 5.08525L29.1064 13.4692L31.0966 13.6667L31.9286 5.28275L29.9384 5.08525ZM30.5112 12.6558C27.9527 11.5066 25.5313 10.6327 23.2487 10.0401L22.7462 11.9759C24.9009 12.5353 27.2156 13.368 29.6917 14.4802L30.5112 12.6558ZM23.2598 10.043C20.9767 9.42238 18.6485 9.112 16.2775 9.112V11.112C18.4717 11.112 20.6235 11.3989 22.7351 11.973L23.2598 10.043ZM16.2775 9.112C13.8004 9.112 11.7457 9.51731 10.2228 10.441L11.2601 12.151C12.3399 11.496 13.9759 11.112 16.2775 11.112V9.112ZM10.2228 10.441C8.60931 11.4197 7.78946 12.9357 7.78946 14.848H9.78946C9.78946 13.603 10.2709 12.751 11.2601 12.151L10.2228 10.441ZM7.78946 14.848C7.78946 16.31 8.21709 17.5864 9.15045 18.5746L10.6045 17.2014C10.0872 16.6536 9.78946 15.9033 9.78946 14.848H7.78946ZM9.15045 18.5746C10.0021 19.4764 11.1715 20.2068 12.6 20.7964L13.3629 18.9476C12.1035 18.4278 11.2035 17.8356 10.6045 17.2014L9.15045 18.5746ZM12.6126 20.8015C13.9843 21.3458 15.6181 21.9189 17.5103 22.5209L18.1167 20.6151C16.2542 20.0225 14.6666 19.4648 13.3503 18.9425L12.6126 20.8015ZM17.5123 22.5216C20.7103 23.5315 23.3623 24.6373 25.4828 25.8313L26.4641 24.0886C24.19 22.8081 21.4019 21.6525 18.1146 20.6144L17.5123 22.5216ZM25.4928 25.8369C27.5958 26.9895 29.1201 28.3653 30.121 29.9435L31.81 28.8725C30.5922 26.952 28.7884 25.3625 26.4541 24.0831L25.4928 25.8369ZM30.1287 29.9555C31.1299 31.4856 31.6615 33.4278 31.6615 35.84H33.6615C33.6615 33.1322 33.0624 30.7864 31.8022 28.8605L30.1287 29.9555ZM31.6615 35.84C31.6615 37.0157 31.4751 38.325 31.0875 39.7735L33.0195 40.2905C33.4425 38.7097 33.6615 37.2243 33.6615 35.84H31.6615ZM31.0884 39.7701C30.7296 41.0918 30.0147 42.3764 28.9061 43.6236L30.4009 44.9524C31.6816 43.5116 32.5666 41.9589 33.0185 40.2939L31.0884 39.7701ZM28.9061 43.6236C27.8507 44.8109 26.2569 45.8435 24.0505 46.6811L24.7604 48.5509C27.1621 47.6391 29.0669 46.4531 30.4009 44.9524L28.9061 43.6236ZM24.0553 46.6793C21.9287 47.4743 19.0323 47.896 15.3175 47.896V49.896C19.1546 49.896 22.3169 49.4644 24.7556 48.5527L24.0553 46.6793ZM40.9955 48H39.9955V49H40.9955V48ZM40.9955 -3.8147e-06V-1H39.9955V-3.8147e-06H40.9955ZM48.9315 -3.8147e-06H49.9315V-1H48.9315V-3.8147e-06ZM48.9315 29.12H47.9315V32.1007L49.7291 29.7231L48.9315 29.12ZM58.8515 16V15H58.3539L58.0538 15.3969L58.8515 16ZM67.8115 16L68.6083 16.6042L69.8248 15H67.8115V16ZM56.1635 31.36L55.3667 30.7558L54.9216 31.3427L55.3502 31.9418L56.1635 31.36ZM68.0675 48V49H70.0124L68.8808 47.4182L68.0675 48ZM59.1075 48L58.2945 48.5823L58.5937 49H59.1075V48ZM48.9315 33.792L49.7445 33.2097L47.9315 30.6784V33.792H48.9315ZM48.9315 48V49H49.9315V48H48.9315ZM41.9955 48V-3.8147e-06H39.9955V48H41.9955ZM40.9955 0.999996H48.9315V-1H40.9955V0.999996ZM47.9315 -3.8147e-06V29.12H49.9315V-3.8147e-06H47.9315ZM49.7291 29.7231L59.6491 16.6031L58.0538 15.3969L48.1338 28.5169L49.7291 29.7231ZM58.8515 17H67.8115V15H58.8515V17ZM67.0147 15.3958L55.3667 30.7558L56.9603 31.9642L68.6083 16.6042L67.0147 15.3958ZM55.3502 31.9418L67.2542 48.5818L68.8808 47.4182L56.9768 30.7782L55.3502 31.9418ZM68.0675 47H59.1075V49H68.0675V47ZM59.9205 47.4177L49.7445 33.2097L48.1185 34.3743L58.2945 48.5823L59.9205 47.4177ZM47.9315 33.792V48H49.9315V33.792H47.9315ZM48.9315 47H40.9955V49H48.9315V47ZM75.322 48H74.322V49H75.322V48ZM75.322 16V15H74.322V16H75.322ZM83.258 16H84.258V15H83.258V16ZM83.258 48V49H84.258V48H83.258ZM75.322 11.136H74.322V12.136H75.322V11.136ZM75.322 3.2V2.2H74.322V3.2H75.322ZM83.258 3.2H84.258V2.2H83.258V3.2ZM83.258 11.136V12.136H84.258V11.136H83.258ZM76.322 48V16H74.322V48H76.322ZM75.322 17H83.258V15H75.322V17ZM82.258 16V48H84.258V16H82.258ZM83.258 47H75.322V49H83.258V47ZM76.322 11.136V3.2H74.322V11.136H76.322ZM75.322 4.2H83.258V2.2H75.322V4.2ZM82.258 3.2V11.136H84.258V3.2H82.258ZM83.258 10.136H75.322V12.136H83.258V10.136ZM97.417 47.52L96.8762 48.3612L96.8849 48.3668L96.8937 48.3722L97.417 47.52ZM94.761 44.48L93.849 44.8904L93.8517 44.8961L94.761 44.48ZM93.897 -3.8147e-06V-1H92.897V-3.8147e-06H93.897ZM101.833 -3.8147e-06H102.833V-1H101.833V-3.8147e-06ZM102.121 40.64L101.154 40.8959L101.159 40.913L101.164 40.93L102.121 40.64ZM103.273 41.92L103.013 42.8856L103.03 42.8903L103.048 42.8944L103.273 41.92ZM105.673 42.112L106.667 42.2192L106.787 41.112H105.673V42.112ZM104.969 48.64V49.64H105.867L105.963 48.7472L104.969 48.64ZM102.089 47.64C100.316 47.64 98.9549 47.2909 97.9402 46.6678L96.8937 48.3722C98.311 49.2425 100.065 49.64 102.089 49.64V47.64ZM97.9577 46.6788C96.9196 46.0115 96.1645 45.1438 95.6703 44.0639L93.8517 44.8961C94.5095 46.3336 95.525 47.4925 96.8762 48.3612L97.9577 46.6788ZM95.6729 44.0696C95.1602 42.9304 94.897 41.664 94.897 40.256H92.897C92.897 41.92 93.2097 43.4696 93.849 44.8904L95.6729 44.0696ZM94.897 40.256V-3.8147e-06H92.897V40.256H94.897ZM93.897 0.999996H101.833V-1H93.897V0.999996ZM100.833 -3.8147e-06V36.992H102.833V-3.8147e-06H100.833ZM100.833 36.992C100.833 38.7038 100.926 40.0341 101.154 40.8959L103.088 40.3841C102.932 39.7952 102.833 38.6935 102.833 36.992H100.833ZM101.164 40.93C101.445 41.8589 102.031 42.6212 103.013 42.8856L103.533 40.9544C103.406 40.9202 103.223 40.8291 103.078 40.35L101.164 40.93ZM103.048 42.8944C103.714 43.048 104.604 43.112 105.673 43.112V41.112C104.652 41.112 103.941 41.048 103.498 40.9456L103.048 42.8944ZM104.679 42.0048L103.975 48.5328L105.963 48.7472L106.667 42.2192L104.679 42.0048ZM104.969 47.64H102.089V49.64H104.969V47.64ZM117.429 47.52L116.889 48.3612L116.897 48.3668L116.906 48.3722L117.429 47.52ZM114.773 44.48L113.862 44.8904L113.864 44.8961L114.773 44.48ZM113.909 -3.8147e-06V-1H112.909V-3.8147e-06H113.909ZM121.845 -3.8147e-06H122.845V-1H121.845V-3.8147e-06ZM122.133 40.64L121.167 40.8959L121.171 40.913L121.176 40.93L122.133 40.64ZM123.285 41.92L123.025 42.8856L123.043 42.8903L123.061 42.8944L123.285 41.92ZM125.685 42.112L126.68 42.2192L126.799 41.112H125.685V42.112ZM124.981 48.64V49.64H125.879L125.976 48.7472L124.981 48.64ZM122.101 47.64C120.328 47.64 118.967 47.2909 117.953 46.6678L116.906 48.3722C118.324 49.2425 120.077 49.64 122.101 49.64V47.64ZM117.97 46.6788C116.932 46.0115 116.177 45.1438 115.683 44.0639L113.864 44.8961C114.522 46.3336 115.537 47.4925 116.889 48.3612L117.97 46.6788ZM115.685 44.0696C115.173 42.9304 114.909 41.664 114.909 40.256H112.909C112.909 41.92 113.222 43.4696 113.862 44.8904L115.685 44.0696ZM114.909 40.256V-3.8147e-06H112.909V40.256H114.909ZM113.909 0.999996H121.845V-1H113.909V0.999996ZM120.845 -3.8147e-06V36.992H122.845V-3.8147e-06H120.845ZM120.845 36.992C120.845 38.7038 120.939 40.0341 121.167 40.8959L123.1 40.3841C122.944 39.7952 122.845 38.6935 122.845 36.992H120.845ZM121.176 40.93C121.458 41.8589 122.043 42.6212 123.025 42.8856L123.545 40.9544C123.418 40.9202 123.236 40.8291 123.09 40.35L121.176 40.93ZM123.061 42.8944C123.726 43.048 124.616 43.112 125.685 43.112V41.112C124.664 41.112 123.954 41.048 123.51 40.9456L123.061 42.8944ZM124.691 42.0048L123.987 48.5328L125.976 48.7472L126.68 42.2192L124.691 42.0048ZM124.981 47.64H122.101V49.64H124.981V47.64ZM139.369 46.336L138.85 47.1904L138.858 47.1954L139.369 46.336ZM133.609 40.192L132.715 40.6392L132.717 40.6422L133.609 40.192ZM133.481 23.712L132.584 23.271L132.581 23.2772L133.481 23.712ZM138.793 17.76L139.334 18.6014L139.339 18.5979L138.793 17.76ZM154.985 17.376L154.462 18.228L154.985 17.376ZM159.593 22.432L158.694 22.8683L158.695 22.8719L159.593 22.432ZM161.001 31.52L161.994 31.6403L161.995 31.6368L161.001 31.52ZM160.617 33.728V34.728H161.42L161.594 33.9449L160.617 33.728ZM139.945 33.728V32.728H138.784L138.957 33.8769L139.945 33.728ZM141.801 38.56L141.005 39.1644L141.011 39.1721L141.017 39.1796L141.801 38.56ZM145.289 41.248L144.901 42.1694L144.906 42.1715L145.289 41.248ZM154.921 41.408L155.203 42.3676L155.215 42.3641L154.921 41.408ZM159.337 39.488L160.336 39.431L160.242 37.7968L158.831 38.6257L159.337 39.488ZM159.721 46.208L160.187 47.0929L160.757 46.7933L160.72 46.151L159.721 46.208ZM155.177 47.904L154.916 46.9387L155.177 47.904ZM140.137 28.352L139.159 28.1471L138.906 29.352H140.137V28.352ZM153.065 28.352V29.352H154.065V28.352H153.065ZM152.521 25.472L151.583 25.8187L151.586 25.8254L152.521 25.472ZM150.697 23.008L150.075 23.7909L150.085 23.7984L150.697 23.008ZM142.473 23.808L141.76 23.1073L142.473 23.808ZM149.033 47.64C145.302 47.64 142.269 46.8978 139.881 45.4766L138.858 47.1954C141.632 48.8462 145.043 49.64 149.033 49.64V47.64ZM139.889 45.4817C137.48 44.016 135.694 42.1043 134.502 39.7418L132.717 40.6422C134.085 43.357 136.139 45.5413 138.85 47.1903L139.889 45.4817ZM134.504 39.7448C133.297 37.3317 132.689 34.6914 132.689 31.808H130.689C130.689 34.9833 131.362 37.9323 132.715 40.6392L134.504 39.7448ZM132.689 31.808C132.689 29.0261 133.257 26.4773 134.382 24.1467L132.581 23.2772C131.317 25.896 130.689 28.7446 130.689 31.808H132.689ZM134.379 24.153C135.514 21.8423 137.161 19.9965 139.334 18.6014L138.253 16.9186C135.775 18.5101 133.88 20.6324 132.584 23.271L134.379 24.153ZM139.339 18.5979C141.471 17.2092 144.109 16.488 147.305 16.488V14.488C143.803 14.488 140.766 15.2815 138.248 16.9221L139.339 18.5979ZM147.305 16.488C150.243 16.488 152.61 17.0896 154.462 18.228L155.509 16.524C153.265 15.1451 150.512 14.488 147.305 14.488V16.488ZM154.462 18.228C156.352 19.3893 157.755 20.9322 158.694 22.8683L160.493 21.9957C159.384 19.7078 157.715 17.88 155.509 16.524L154.462 18.228ZM158.695 22.8719C159.646 24.8135 160.129 26.9758 160.129 29.376H162.129C162.129 26.6989 161.589 24.2318 160.492 21.9921L158.695 22.8719ZM160.129 29.376C160.129 30.0395 160.089 30.7152 160.008 31.4032L161.995 31.6368C162.084 30.8742 162.129 30.1205 162.129 29.376H160.129ZM160.009 31.3997C159.928 32.0679 159.806 32.7716 159.641 33.5111L161.594 33.9449C161.771 33.1484 161.905 32.3801 161.994 31.6403L160.009 31.3997ZM160.617 32.728H139.945V34.728H160.617V32.728ZM138.957 33.8769C139.273 35.9794 139.94 37.7604 141.005 39.1644L142.598 37.9556C141.786 36.885 141.215 35.4446 140.934 33.5791L138.957 33.8769ZM141.017 39.1796C142.076 40.5218 143.373 41.5248 144.901 42.1694L145.678 40.3266C144.475 39.8192 143.447 39.0302 142.586 37.9404L141.017 39.1796ZM144.906 42.1715C146.42 42.8006 148.034 43.112 149.737 43.112V41.112C148.284 41.112 146.932 40.8474 145.673 40.3245L144.906 42.1715ZM149.737 43.112C151.678 43.112 153.502 42.8666 155.203 42.3676L154.64 40.4484C153.141 40.8881 151.509 41.112 149.737 41.112V43.112ZM155.215 42.3641C156.884 41.8522 158.428 41.1819 159.844 40.3503L158.831 38.6257C157.559 39.3728 156.159 39.9825 154.628 40.4519L155.215 42.3641ZM158.339 39.5451L158.723 46.265L160.72 46.151L160.336 39.431L158.339 39.5451ZM159.256 45.3231C158.124 45.919 156.683 46.4608 154.916 46.9387L155.439 48.8693C157.299 48.3659 158.887 47.777 160.187 47.0929L159.256 45.3231ZM154.916 46.9387C153.204 47.402 151.246 47.64 149.033 47.64V49.64C151.386 49.64 153.524 49.3873 155.439 48.8693L154.916 46.9387ZM140.137 29.352H153.065V27.352H140.137V29.352ZM154.065 28.352C154.065 27.2632 153.859 26.1837 153.457 25.1186L151.586 25.8254C151.909 26.6803 152.065 27.5208 152.065 28.352H154.065ZM153.459 25.1253C153.03 23.9628 152.306 22.9896 151.31 22.2176L150.085 23.7984C150.795 24.349 151.288 25.0186 151.583 25.8186L153.459 25.1253ZM151.32 22.2252C150.258 21.3815 148.883 21.016 147.305 21.016V23.016C148.587 23.016 149.473 23.3119 150.075 23.7908L151.32 22.2252ZM147.305 21.016C145.053 21.016 143.162 21.68 141.76 23.1073L143.187 24.5087C144.132 23.5467 145.462 23.016 147.305 23.016V21.016ZM141.76 23.1073C140.437 24.4544 139.577 26.1483 139.159 28.1471L141.116 28.5569C141.466 26.8864 142.163 25.551 143.187 24.5087L141.76 23.1073ZM174.483 46.368L173.915 47.1913L173.919 47.1939L174.483 46.368ZM169.491 40.32L168.576 40.7233L168.579 40.7297L169.491 40.32ZM169.491 23.808L168.579 23.3983L168.576 23.4047L169.491 23.808ZM174.483 17.76L173.919 16.9341L173.915 16.9367L174.483 17.76ZM188.627 16.672L188.189 17.5712L188.199 17.5757L188.627 16.672ZM192.915 19.648L193.57 20.4037L194.389 19.6941L193.616 18.9348L192.915 19.648ZM190.995 21.312H189.995V23.502L191.65 22.0677L190.995 21.312ZM190.995 -3.8147e-06V-1H189.995V-3.8147e-06H190.995ZM198.931 -3.8147e-06H199.931V-1H198.931V-3.8147e-06ZM198.931 48V49H199.931V48H198.931ZM191.443 48L190.445 48.0704L190.511 49H191.443V48ZM191.059 42.56L191.644 41.7493L189.911 40.4973L190.061 42.6304L191.059 42.56ZM193.363 44.224L194.038 44.962L194.945 44.1328L193.948 43.4133L193.363 44.224ZM188.723 47.456L189.165 48.3528L188.723 47.456ZM188.115 40.832L188.725 41.6246L188.115 40.832ZM190.579 37.312L191.521 37.6483L191.522 37.6441L190.579 37.312ZM190.579 26.848L189.636 27.1801L189.637 27.1843L190.579 26.848ZM188.115 23.296L187.505 24.0886L188.115 23.296ZM179.571 23.296L180.159 24.1047L179.571 23.296ZM176.883 26.848L177.807 27.2307L177.809 27.2261L176.883 26.848ZM176.883 37.312L175.957 37.6901L175.959 37.6947L176.883 37.312ZM179.571 40.832L178.983 41.6407L179.571 40.832ZM182.675 47.64C179.591 47.64 177.067 46.9216 175.047 45.5421L173.919 47.1939C176.336 48.8437 179.273 49.64 182.675 49.64V47.64ZM175.051 45.5447C173.009 44.1374 171.462 42.2668 170.403 39.9103L168.579 40.7297C169.782 43.4079 171.562 45.5693 173.915 47.1913L175.051 45.5447ZM170.406 39.9167C169.357 37.537 168.827 34.9238 168.827 32.064H166.827C166.827 35.1775 167.406 38.0683 168.576 40.7233L170.406 39.9167ZM168.827 32.064C168.827 29.2042 169.357 26.591 170.406 24.2113L168.576 23.4047C167.406 26.0597 166.827 28.9505 166.827 32.064H168.827ZM170.403 24.2177C171.462 21.8612 173.009 19.9906 175.051 18.5833L173.915 16.9367C171.562 18.5587 169.782 20.7201 168.579 23.3983L170.403 24.2177ZM175.047 18.5859C177.067 17.2064 179.591 16.488 182.675 16.488V14.488C179.273 14.488 176.336 15.2843 173.919 16.9341L175.047 18.5859ZM182.675 16.488C184.914 16.488 186.739 16.8651 188.189 17.5711L189.065 15.7729C187.272 14.9003 185.129 14.488 182.675 14.488V16.488ZM188.199 17.5757C189.723 18.2976 191.059 19.2262 192.214 20.3612L193.616 18.9348C192.296 17.6378 190.774 16.5824 189.055 15.7683L188.199 17.5757ZM192.26 18.8923L190.34 20.5563L191.65 22.0677L193.57 20.4037L192.26 18.8923ZM191.995 21.312V-3.8147e-06H189.995V21.312H191.995ZM190.995 0.999996H198.931V-1H190.995V0.999996ZM197.931 -3.8147e-06V48H199.931V-3.8147e-06H197.931ZM198.931 47H191.443V49H198.931V47ZM192.44 47.9296L192.056 42.4896L190.061 42.6304L190.445 48.0704L192.44 47.9296ZM190.473 43.3707L192.777 45.0347L193.948 43.4133L191.644 41.7493L190.473 43.3707ZM192.688 43.486C191.255 44.7961 189.786 45.8167 188.281 46.5592L189.165 48.3528C190.86 47.5166 192.484 46.3826 194.038 44.962L192.688 43.486ZM188.281 46.5592C186.859 47.2606 185.006 47.64 182.675 47.64V49.64C185.208 49.64 187.387 49.2301 189.165 48.3528L188.281 46.5592ZM183.827 43.112C185.741 43.112 187.401 42.643 188.725 41.6246L187.505 40.0394C186.611 40.7276 185.412 41.112 183.827 41.112V43.112ZM188.725 41.6246C190.006 40.6392 190.932 39.2977 191.521 37.6483L189.637 36.9757C189.16 38.3129 188.443 39.3182 187.505 40.0394L188.725 41.6246ZM191.522 37.6441C192.101 36.001 192.379 34.1355 192.379 32.064H190.379C190.379 33.9605 190.124 35.5937 189.636 36.9799L191.522 37.6441ZM192.379 32.064C192.379 29.993 192.101 28.1362 191.521 26.5117L189.637 27.1843C190.124 28.5465 190.379 30.167 190.379 32.064H192.379ZM191.522 26.5159C190.934 24.8463 190.009 23.4914 188.725 22.5034L187.505 24.0886C188.44 24.8073 189.157 25.8204 189.636 27.1801L191.522 26.5159ZM188.725 22.5034C187.401 21.485 185.741 21.016 183.827 21.016V23.016C185.412 23.016 186.611 23.4004 187.505 24.0886L188.725 22.5034ZM183.827 21.016C181.984 21.016 180.351 21.4919 178.983 22.4873L180.159 24.1047C181.137 23.3934 182.342 23.016 183.827 23.016V21.016ZM178.983 22.4873C177.641 23.4635 176.637 24.8056 175.957 26.4699L177.809 27.2261C178.366 25.861 179.155 24.8352 180.159 24.1047L178.983 22.4873ZM175.959 26.4653C175.28 28.1041 174.955 29.9777 174.955 32.064H176.955C176.955 30.1823 177.248 28.5785 177.807 27.2307L175.959 26.4653ZM174.955 32.064C174.955 34.1508 175.28 36.0328 175.957 37.6901L177.809 36.9339C177.248 35.5618 176.955 33.9452 176.955 32.064H174.955ZM175.959 37.6947C176.64 39.3383 177.644 40.667 178.983 41.6407L180.159 40.0233C179.151 39.2904 178.363 38.2724 177.807 36.9293L175.959 37.6947ZM178.983 41.6407C180.351 42.6361 181.984 43.112 183.827 43.112V41.112C182.342 41.112 181.137 40.7346 180.159 40.0233L178.983 41.6407ZM228.3 48H227.3V49H228.3V48ZM228.3 3.2V2.2H227.3V3.2H228.3ZM256.972 3.2H257.972V2.2H256.972V3.2ZM256.972 11.136V12.136H257.972V11.136H256.972ZM236.684 11.136V10.136H235.684V11.136H236.684ZM236.684 20.672H235.684V21.672H236.684V20.672ZM252.428 20.672H253.428V19.672H252.428V20.672ZM252.428 28.608V29.608H253.428V28.608H252.428ZM236.684 28.608V27.608H235.684V28.608H236.684ZM236.684 40.064H235.684V41.064H236.684V40.064ZM257.612 40.064H258.612V39.064H257.612V40.064ZM257.612 48V49H258.612V48H257.612ZM229.3 48V3.2H227.3V48H229.3ZM228.3 4.2H256.972V2.2H228.3V4.2ZM255.972 3.2V11.136H257.972V3.2H255.972ZM256.972 10.136H236.684V12.136H256.972V10.136ZM235.684 11.136V20.672H237.684V11.136H235.684ZM236.684 21.672H252.428V19.672H236.684V21.672ZM251.428 20.672V28.608H253.428V20.672H251.428ZM252.428 27.608H236.684V29.608H252.428V27.608ZM235.684 28.608V40.064H237.684V28.608H235.684ZM236.684 41.064H257.612V39.064H236.684V41.064ZM256.612 40.064V48H258.612V40.064H256.612ZM257.612 47H228.3V49H257.612V47ZM263.587 48L262.754 47.4468L261.723 49H263.587V48ZM274.211 32L275.045 32.5532L275.412 32L275.045 31.4468L274.211 32ZM263.587 16V15H261.723L262.754 16.5532L263.587 16ZM273.059 16L273.906 15.4684L273.612 15H273.059V16ZM278.883 25.28L278.036 25.8116L278.918 27.2158L279.749 25.7813L278.883 25.28ZM284.259 16V15H283.683L283.394 15.4987L284.259 16ZM293.731 16L294.565 16.5532L295.596 15H293.731V16ZM283.107 32L282.274 31.4468L281.907 32L282.274 32.5532L283.107 32ZM293.731 48V49H295.596L294.565 47.4468L293.731 48ZM284.259 48L283.412 48.5316L283.706 49H284.259V48ZM278.435 38.72L279.282 38.1884L278.401 36.7842L277.57 38.2187L278.435 38.72ZM273.059 48V49H273.636L273.925 48.5013L273.059 48ZM264.421 48.5532L275.045 32.5532L273.378 31.4468L262.754 47.4468L264.421 48.5532ZM275.045 31.4468L264.421 15.4468L262.754 16.5532L273.378 32.5532L275.045 31.4468ZM263.587 17H273.059V15H263.587V17ZM272.212 16.5316L278.036 25.8116L279.73 24.7484L273.906 15.4684L272.212 16.5316ZM279.749 25.7813L285.125 16.5013L283.394 15.4987L278.018 24.7787L279.749 25.7813ZM284.259 17H293.731V15H284.259V17ZM292.898 15.4468L282.274 31.4468L283.941 32.5532L294.565 16.5532L292.898 15.4468ZM282.274 32.5532L292.898 48.5532L294.565 47.4468L283.941 31.4468L282.274 32.5532ZM293.731 47H284.259V49H293.731V47ZM285.106 47.4684L279.282 38.1884L277.588 39.2516L283.412 48.5316L285.106 47.4684ZM277.57 38.2187L272.194 47.4987L273.925 48.5013L279.301 39.2213L277.57 38.2187ZM273.059 47H263.587V49H273.059V47ZM301.297 63.488H300.297V64.488H301.297V63.488ZM301.297 16V15H300.297V16H301.297ZM307.697 16L308.658 15.7222L308.449 15H307.697V16ZM309.233 21.312L308.901 22.2555L310.733 22.8989L310.194 21.0342L309.233 21.312ZM306.865 20.48L306.148 19.7831L305.058 20.9049L306.533 21.4235L306.865 20.48ZM311.665 16.864L312.125 17.7518L312.134 17.7473L311.665 16.864ZM325.905 17.76L326.484 16.9446V16.9446L325.905 17.76ZM330.737 23.808L329.819 24.2047L329.822 24.2113L330.737 23.808ZM330.737 40.32L329.822 39.9167L329.819 39.9233L330.737 40.32ZM325.905 46.368L326.484 47.1834L325.905 46.368ZM311.921 47.616L311.519 48.5319L311.921 47.616ZM307.185 44.352L306.569 43.564L305.647 44.2845L306.503 45.0831L307.185 44.352ZM309.233 42.752H310.233V40.7018L308.617 41.964L309.233 42.752ZM309.233 63.488V64.488H310.233V63.488H309.233ZM322.289 39.328L321.471 38.752L321.47 38.7539L322.289 39.328ZM322.289 24.8L321.47 25.3741L321.475 25.3804L322.289 24.8ZM312.273 23.296L312.861 24.1047L312.273 23.296ZM309.681 26.848L310.618 27.1962L310.62 27.1919L309.681 26.848ZM309.681 37.312L308.742 37.6559L308.744 37.6602L309.681 37.312ZM312.273 40.832L312.861 40.0233L312.273 40.832ZM302.297 63.488V16H300.297V63.488H302.297ZM301.297 17H307.697V15H301.297V17ZM306.736 16.2778L308.272 21.5898L310.194 21.0342L308.658 15.7222L306.736 16.2778ZM309.564 20.3685L307.196 19.5365L306.533 21.4235L308.901 22.2555L309.564 20.3685ZM307.582 21.1769C308.986 19.7327 310.5 18.5943 312.125 17.7518L311.205 15.9762C309.374 16.9257 307.688 18.198 306.148 19.7831L307.582 21.1769ZM312.134 17.7473C313.683 16.9248 315.625 16.488 318.001 16.488V14.488C315.385 14.488 313.103 14.9685 311.196 15.9807L312.134 17.7473ZM318.001 16.488C320.972 16.488 323.393 17.2031 325.326 18.5754L326.484 16.9446C324.15 15.2876 321.302 14.488 318.001 14.488V16.488ZM325.326 18.5754C327.303 19.9789 328.8 21.8469 329.819 24.2047L331.655 23.4113C330.498 20.7345 328.774 18.5704 326.484 16.9446L325.326 18.5754ZM329.822 24.2113C330.871 26.591 331.401 29.2042 331.401 32.064H333.401C333.401 28.9505 332.822 26.0597 331.652 23.4047L329.822 24.2113ZM331.401 32.064C331.401 34.9238 330.871 37.537 329.822 39.9167L331.652 40.7233C332.822 38.0683 333.401 35.1775 333.401 32.064H331.401ZM329.819 39.9233C328.8 42.2811 327.303 44.1491 325.326 45.5526L326.484 47.1834C328.774 45.5576 330.498 43.3935 331.655 40.7167L329.819 39.9233ZM325.326 45.5526C323.393 46.9249 320.972 47.64 318.001 47.64V49.64C321.302 49.64 324.15 48.8404 326.484 47.1834L325.326 45.5526ZM318.001 47.64C315.584 47.64 313.708 47.3077 312.322 46.7001L311.519 48.5319C313.248 49.2897 315.426 49.64 318.001 49.64V47.64ZM312.322 46.7001C310.893 46.0737 309.407 45.0583 307.867 43.6209L306.503 45.0831C308.163 46.6324 309.834 47.793 311.519 48.5319L312.322 46.7001ZM307.801 45.14L309.849 43.54L308.617 41.964L306.569 43.564L307.801 45.14ZM308.233 42.752V63.488H310.233V42.752H308.233ZM309.233 62.488H301.297V64.488H309.233V62.488ZM316.785 43.112C319.462 43.112 321.61 42.0389 323.108 39.9021L321.47 38.7539C320.366 40.3291 318.844 41.112 316.785 41.112V43.112ZM323.106 39.904C324.578 37.8149 325.273 35.1757 325.273 32.064H323.273C323.273 34.883 322.645 37.0864 321.471 38.752L323.106 39.904ZM325.273 32.064C325.273 28.9334 324.579 26.2907 323.103 24.2196L321.475 25.3804C322.644 27.0213 323.273 29.2212 323.273 32.064H325.273ZM323.108 24.2259C321.61 22.0891 319.462 21.016 316.785 21.016V23.016C318.844 23.016 320.366 23.7989 321.47 25.3741L323.108 24.2259ZM316.785 21.016C314.795 21.016 313.07 21.4801 311.685 22.4873L312.861 24.1047C313.823 23.4052 315.105 23.016 316.785 23.016V21.016ZM311.685 22.4873C310.333 23.4702 309.357 24.8248 308.742 26.5041L310.62 27.1919C311.114 25.8419 311.866 24.8285 312.861 24.1047L311.685 22.4873ZM308.744 26.4998C308.139 28.1281 307.849 29.9892 307.849 32.064H309.849C309.849 30.1708 310.114 28.5545 310.618 27.1962L308.744 26.4998ZM307.849 32.064C307.849 34.1393 308.139 36.009 308.742 37.6559L310.62 36.9681C310.114 35.5857 309.849 33.9567 309.849 32.064H307.849ZM308.744 37.6602C309.36 39.3192 310.337 40.6603 311.685 41.6407L312.861 40.0233C311.863 39.297 311.112 38.2914 310.618 36.9638L308.744 37.6602ZM311.685 41.6407C313.07 42.6479 314.795 43.112 316.785 43.112V41.112C315.105 41.112 313.823 40.7228 312.861 40.0233L311.685 41.6407ZM346.882 46.336L346.362 47.1904L346.371 47.1954L346.882 46.336ZM341.122 40.192L340.228 40.6392L340.229 40.6422L341.122 40.192ZM340.994 23.712L340.096 23.271L340.093 23.2772L340.994 23.712ZM346.306 17.76L346.846 18.6014L346.852 18.5979L346.306 17.76ZM362.498 17.376L361.974 18.228L362.498 17.376ZM367.106 22.432L366.206 22.8683L366.208 22.8719L367.106 22.432ZM368.514 31.52L369.507 31.6403L369.507 31.6368L368.514 31.52ZM368.13 33.728V34.728H368.932L369.106 33.9449L368.13 33.728ZM347.458 33.728V32.728H346.296L346.469 33.8769L347.458 33.728ZM349.314 38.56L348.517 39.1644L348.523 39.1721L348.529 39.1796L349.314 38.56ZM352.802 41.248L352.413 42.1694L352.418 42.1715L352.802 41.248ZM362.434 41.408L362.715 42.3676L362.727 42.3641L362.434 41.408ZM366.85 39.488L367.848 39.431L367.755 37.7968L366.344 38.6257L366.85 39.488ZM367.234 46.208L367.7 47.0929L368.269 46.7933L368.232 46.151L367.234 46.208ZM362.69 47.904L362.429 46.9387L362.69 47.904ZM347.65 28.352L346.671 28.1471L346.419 29.352H347.65V28.352ZM360.578 28.352V29.352H361.578V28.352H360.578ZM360.034 25.472L359.096 25.8187L359.099 25.8254L360.034 25.472ZM358.21 23.008L357.588 23.7909L357.597 23.7984L358.21 23.008ZM349.986 23.808L349.273 23.1073L349.986 23.808ZM356.546 47.64C352.814 47.64 349.782 46.8978 347.393 45.4766L346.371 47.1954C349.145 48.8462 352.555 49.64 356.546 49.64V47.64ZM347.402 45.4817C344.992 44.016 343.206 42.1043 342.015 39.7418L340.229 40.6422C341.598 43.357 343.652 45.5413 346.362 47.1903L347.402 45.4817ZM342.016 39.7448C340.81 37.3317 340.202 34.6914 340.202 31.808H338.202C338.202 34.9833 338.874 37.9323 340.228 40.6392L342.016 39.7448ZM340.202 31.808C340.202 29.0261 340.769 26.4773 341.895 24.1467L340.093 23.2772C338.829 25.896 338.202 28.7446 338.202 31.808H340.202ZM341.891 24.153C343.027 21.8423 344.674 19.9965 346.846 18.6014L345.766 16.9186C343.287 18.5101 341.393 20.6324 340.096 23.271L341.891 24.153ZM346.852 18.5979C348.984 17.2092 351.622 16.488 354.818 16.488V14.488C351.315 14.488 348.279 15.2815 345.76 16.9221L346.852 18.5979ZM354.818 16.488C357.756 16.488 360.122 17.0896 361.974 18.228L363.022 16.524C360.778 15.1451 358.024 14.488 354.818 14.488V16.488ZM361.974 18.228C363.864 19.3893 365.267 20.9322 366.206 22.8683L368.006 21.9957C366.896 19.7078 365.228 17.88 363.022 16.524L361.974 18.228ZM366.208 22.8719C367.159 24.8135 367.642 26.9758 367.642 29.376H369.642C369.642 26.6989 369.101 24.2318 368.004 21.9921L366.208 22.8719ZM367.642 29.376C367.642 30.0395 367.602 30.7152 367.521 31.4032L369.507 31.6368C369.597 30.8742 369.642 30.1205 369.642 29.376H367.642ZM367.521 31.3997C367.44 32.0679 367.318 32.7716 367.154 33.5111L369.106 33.9449C369.283 33.1484 369.417 32.3801 369.507 31.6403L367.521 31.3997ZM368.13 32.728H347.458V34.728H368.13V32.728ZM346.469 33.8769C346.786 35.9794 347.452 37.7604 348.517 39.1644L350.111 37.9556C349.298 36.885 348.728 35.4446 348.447 33.5791L346.469 33.8769ZM348.529 39.1796C349.589 40.5218 350.885 41.5248 352.413 42.1694L353.191 40.3266C351.988 39.8192 350.959 39.0302 350.099 37.9404L348.529 39.1796ZM352.418 42.1715C353.933 42.8006 355.547 43.112 357.25 43.112V41.112C355.796 41.112 354.444 40.8474 353.186 40.3245L352.418 42.1715ZM357.25 43.112C359.191 43.112 361.014 42.8666 362.715 42.3676L362.152 40.4484C360.654 40.8881 359.021 41.112 357.25 41.112V43.112ZM362.727 42.3641C364.396 41.8522 365.94 41.1819 367.356 40.3503L366.344 38.6257C365.071 39.3728 363.672 39.9825 362.141 40.4519L362.727 42.3641ZM365.852 39.5451L366.236 46.265L368.232 46.151L367.848 39.431L365.852 39.5451ZM366.768 45.3231C365.636 45.919 364.195 46.4608 362.429 46.9387L362.951 48.8693C364.812 48.3659 366.4 47.777 367.7 47.0929L366.768 45.3231ZM362.429 46.9387C360.717 47.402 358.759 47.64 356.546 47.64V49.64C358.899 49.64 361.037 49.3873 362.951 48.8693L362.429 46.9387ZM347.65 29.352H360.578V27.352H347.65V29.352ZM361.578 28.352C361.578 27.2632 361.372 26.1837 360.969 25.1186L359.099 25.8254C359.421 26.6803 359.578 27.5208 359.578 28.352H361.578ZM360.972 25.1253C360.542 23.9628 359.819 22.9896 358.823 22.2176L357.597 23.7984C358.308 24.349 358.8 25.0186 359.096 25.8186L360.972 25.1253ZM358.832 22.2252C357.771 21.3815 356.396 21.016 354.818 21.016V23.016C356.099 23.016 356.985 23.3119 357.588 23.7908L358.832 22.2252ZM354.818 21.016C352.565 21.016 350.674 21.68 349.273 23.1073L350.699 24.5087C351.644 23.5467 352.974 23.016 354.818 23.016V21.016ZM349.273 23.1073C347.95 24.4544 347.09 26.1483 346.671 28.1471L348.629 28.5569C348.978 26.8864 349.676 25.551 350.699 24.5087L349.273 23.1073ZM377.259 48H376.259V49H377.259V48ZM377.259 16V15H376.259V16H377.259ZM384.683 16L385.682 15.9435L385.628 15H384.683V16ZM384.875 19.392L383.877 19.4485L384.012 21.8366L385.617 20.0629L384.875 19.392ZM388.299 16.704L388.819 17.5582L388.299 16.704ZM394.539 15.488L395.537 15.5616L395.602 14.6807L394.736 14.5074L394.539 15.488ZM393.963 23.296L393.7 24.2608L394.871 24.5802L394.961 23.3696L393.963 23.296ZM392.555 23.04L392.461 24.0355L392.465 24.0359L392.555 23.04ZM387.531 23.904L388.019 24.7774L387.531 23.904ZM385.195 26.176L384.301 25.7288L384.195 25.9399V26.176H385.195ZM385.195 48V49H386.195V48H385.195ZM378.259 48V16H376.259V48H378.259ZM377.259 17H384.683V15H377.259V17ZM383.685 16.0565L383.877 19.4485L385.874 19.3355L385.682 15.9435L383.685 16.0565ZM385.617 20.0629C386.342 19.2616 387.398 18.4235 388.819 17.5582L387.78 15.8498C386.257 16.7765 385.03 17.7304 384.134 18.7211L385.617 20.0629ZM388.819 17.5582C390.132 16.7591 391.563 16.36 393.131 16.36V14.36C391.202 14.36 389.411 14.8569 387.78 15.8498L388.819 17.5582ZM393.131 16.36C393.589 16.36 393.991 16.3982 394.343 16.4686L394.736 14.5074C394.234 14.4071 393.698 14.36 393.131 14.36V16.36ZM393.542 15.4144L392.966 23.2224L394.961 23.3696L395.537 15.5616L393.542 15.4144ZM394.227 22.3312C393.703 22.1883 393.176 22.0922 392.646 22.0441L392.465 24.0359C392.874 24.0731 393.286 24.1477 393.7 24.2608L394.227 22.3312ZM392.65 22.0445C392.171 21.9988 391.691 21.976 391.211 21.976V23.976C391.628 23.976 392.044 23.9958 392.461 24.0355L392.65 22.0445ZM391.211 21.976C389.707 21.976 388.311 22.3241 387.044 23.0306L388.019 24.7774C388.97 24.2466 390.028 23.976 391.211 23.976V21.976ZM387.044 23.0306C385.807 23.721 384.86 24.6103 384.301 25.7288L386.09 26.6232C386.427 25.9497 387.038 25.3244 388.019 24.7774L387.044 23.0306ZM384.195 26.176V48H386.195V26.176H384.195ZM385.195 47H377.259V49H385.195V47ZM407.12 47.424L406.569 48.2583L406.579 48.2647L407.12 47.424ZM404.336 44.256L405.243 43.8331L404.336 44.256ZM403.44 22.528H404.44V21.528H403.44V22.528ZM398.896 22.528L397.902 22.4208L397.783 23.528H398.896V22.528ZM399.6 16V15H398.703L398.606 15.8928L399.6 16ZM403.44 16V17H404.44V16H403.44ZM403.44 8.96L403.336 7.96545L402.44 8.05936V8.96H403.44ZM411.376 8.128H412.376V7.01768L411.272 7.13345L411.376 8.128ZM411.376 16H410.376V17H411.376V16ZM418.416 16H419.416V15H418.416V16ZM418.416 22.528V23.528H419.416V22.528H418.416ZM411.376 22.528V21.528H410.376V22.528H411.376ZM411.664 40.512L410.698 40.7679L410.7 40.7751L411.664 40.512ZM412.976 41.856L412.706 42.8186L412.72 42.8226L412.734 42.8261L412.976 41.856ZM418.416 42.112L419.411 42.2192L419.53 41.112H418.416V42.112ZM417.712 48.64V49.64H418.61L418.707 48.7472L417.712 48.64ZM412.016 47.64C410.14 47.64 408.713 47.2602 407.662 46.5833L406.579 48.2647C408.045 49.2091 409.883 49.64 412.016 49.64V47.64ZM407.672 46.5898C406.556 45.8523 405.757 44.9344 405.243 43.8331L403.43 44.6789C404.111 46.1376 405.167 47.3317 406.569 48.2582L407.672 46.5898ZM405.243 43.8331C404.706 42.683 404.44 41.4938 404.44 40.256H402.44C402.44 41.7916 402.772 43.269 403.43 44.6789L405.243 43.8331ZM404.44 40.256V22.528H402.44V40.256H404.44ZM403.44 21.528H398.896V23.528H403.44V21.528ZM399.891 22.6352L400.595 16.1072L398.606 15.8928L397.902 22.4208L399.891 22.6352ZM399.6 17H403.44V15H399.6V17ZM404.44 16V8.96H402.44V16H404.44ZM403.545 9.95455L411.481 9.12255L411.272 7.13345L403.336 7.96545L403.545 9.95455ZM410.376 8.128V16H412.376V8.128H410.376ZM411.376 17H418.416V15H411.376V17ZM417.416 16V22.528H419.416V16H417.416ZM418.416 21.528H411.376V23.528H418.416V21.528ZM410.376 22.528V36.992H412.376V22.528H410.376ZM410.376 36.992C410.376 38.6238 410.47 39.9084 410.698 40.7679L412.631 40.2561C412.475 39.6649 412.376 38.6029 412.376 36.992H410.376ZM410.7 40.7751C410.981 41.806 411.673 42.5282 412.706 42.8186L413.247 40.8933C412.915 40.7998 412.732 40.626 412.629 40.2489L410.7 40.7751ZM412.734 42.8261C413.543 43.0285 414.735 43.112 416.24 43.112V41.112C414.759 41.112 413.775 41.0249 413.219 40.8859L412.734 42.8261ZM416.24 43.112H418.416V41.112H416.24V43.112ZM417.422 42.0048L416.718 48.5328L418.707 48.7472L419.411 42.2192L417.422 42.0048ZM417.712 47.64H412.016V49.64H417.712V47.64ZM430.144 48.032L429.911 49.0043L429.913 49.0049L430.144 48.032ZM425.056 46.272L424.062 46.1688L423.987 46.8874L424.646 47.1839L425.056 46.272ZM425.76 39.488L426.265 38.6246L424.926 37.842L424.766 39.3848L425.76 39.488ZM430.592 41.824L430.239 42.7593L430.246 42.7621L430.254 42.7649L430.592 41.824ZM439.232 41.92L438.708 41.0683L439.232 41.92ZM439.808 37.44L439.028 38.0647L439.035 38.074L439.043 38.0832L439.808 37.44ZM437.856 36L438.295 35.1012L437.856 36ZM434.592 34.624L434.945 33.6883L434.939 33.686L434.592 34.624ZM429.568 32.256L429.038 33.104L429.044 33.1077L429.568 32.256ZM426.432 29.184L425.567 29.685L425.572 29.6941L425.578 29.703L426.432 29.184ZM426.816 19.84L425.99 19.2767L426.816 19.84ZM430.912 16.544L431.32 17.4574L430.912 16.544ZM442.656 16.032L442.387 16.995L442.39 16.9959L442.656 16.032ZM447.136 17.856L448.131 17.9592L448.199 17.3063L447.627 16.9844L447.136 17.856ZM446.432 24.64L445.858 25.4587L447.251 26.436L447.427 24.7432L446.432 24.64ZM442.112 22.176L441.698 23.086L441.709 23.0909L442.112 22.176ZM434.176 22.016L433.58 21.2133L434.176 22.016ZM434.624 27.168L435.134 26.3074L434.624 27.168ZM439.648 29.44L439.286 30.372L439.289 30.373L439.648 29.44ZM443.52 31.232L443.026 32.1013L443.033 32.1054L443.52 31.232ZM446.272 33.28L445.555 33.9768V33.9768L446.272 33.28ZM447.872 35.84L446.93 36.175L446.935 36.1878L446.94 36.2004L447.872 35.84ZM446.944 44.288L446.12 43.722L446.118 43.7247L446.944 44.288ZM442.688 47.52L442.319 46.5908L442.315 46.5923L442.688 47.52ZM435.872 47.64C433.823 47.64 431.993 47.4432 430.376 47.0591L429.913 49.0049C431.709 49.4315 433.698 49.64 435.872 49.64V47.64ZM430.378 47.0597C428.758 46.6701 427.121 46.1045 425.467 45.3601L424.646 47.1839C426.405 47.9755 428.16 48.5833 429.911 49.0043L430.378 47.0597ZM426.051 46.3752L426.755 39.5912L424.766 39.3848L424.062 46.1688L426.051 46.3752ZM425.256 40.3514C426.941 41.336 428.602 42.1399 430.239 42.7593L430.946 40.8887C429.426 40.3134 427.866 39.56 426.265 38.6246L425.256 40.3514ZM430.254 42.7649C431.965 43.3811 433.755 43.688 435.616 43.688V41.688C433.979 41.688 432.419 41.4189 430.931 40.8831L430.254 42.7649ZM435.616 43.688C437.277 43.688 438.698 43.4233 439.757 42.7717L438.708 41.0683C438.103 41.4407 437.113 41.688 435.616 41.688V43.688ZM439.757 42.7717C440.929 42.0502 441.48 40.8887 441.48 39.488H439.48C439.48 40.3059 439.2 40.7658 438.708 41.0683L439.757 42.7717ZM441.48 39.488C441.48 38.4685 441.202 37.5438 440.574 36.7968L439.043 38.0832C439.311 38.4029 439.48 38.8435 439.48 39.488H441.48ZM440.589 36.8153C440.04 36.1281 439.25 35.5671 438.295 35.1012L437.418 36.8988C438.212 37.2862 438.724 37.6853 439.028 38.0647L440.589 36.8153ZM438.295 35.1012C437.383 34.6565 436.264 34.1857 434.945 33.6883L434.24 35.5597C435.523 36.0436 436.58 36.4901 437.418 36.8988L438.295 35.1012ZM434.939 33.686C433.022 32.9774 431.41 32.215 430.093 31.4043L429.044 33.1077C430.5 34.0037 432.238 34.8199 434.246 35.562L434.939 33.686ZM430.098 31.408C428.845 30.6248 427.92 29.7072 427.287 28.665L425.578 29.703C426.396 31.0501 427.561 32.1805 429.038 33.104L430.098 31.408ZM427.298 28.683C426.702 27.654 426.376 26.3438 426.376 24.704H424.376C424.376 26.6055 424.755 28.282 425.567 29.685L427.298 28.683ZM426.376 24.704C426.376 23.0541 426.805 21.6324 427.643 20.4033L425.99 19.2767C424.908 20.8636 424.376 22.6845 424.376 24.704H426.376ZM427.643 20.4033C428.484 19.1689 429.695 18.1818 431.32 17.4574L430.505 15.6306C428.589 16.4849 427.069 17.6951 425.99 19.2767L427.643 20.4033ZM431.32 17.4574C432.934 16.7377 434.89 16.36 437.216 16.36V14.36C434.679 14.36 432.432 14.7716 430.505 15.6306L431.32 17.4574ZM437.216 16.36C439.171 16.36 440.891 16.5762 442.387 16.995L442.926 15.069C441.222 14.5918 439.315 14.36 437.216 14.36V16.36ZM442.39 16.9959C443.939 17.4239 445.356 18.0021 446.646 18.7276L447.627 16.9844C446.186 16.1739 444.617 15.5361 442.923 15.0681L442.39 16.9959ZM446.142 17.7528L445.438 24.5368L447.427 24.7432L448.131 17.9592L446.142 17.7528ZM447.007 23.8213C445.529 22.7848 444.032 21.93 442.516 21.2611L441.709 23.0909C443.094 23.702 444.477 24.4899 445.858 25.4587L447.007 23.8213ZM442.527 21.2661C440.936 20.5405 439.203 20.184 437.344 20.184V22.184C438.941 22.184 440.388 22.4888 441.698 23.0859L442.527 21.2661ZM437.344 20.184C435.861 20.184 434.563 20.483 433.58 21.2133L434.773 22.8187C435.283 22.4396 436.098 22.184 437.344 22.184V20.184ZM433.58 21.2133C432.551 21.9776 432.056 23.0805 432.056 24.384H434.056C434.056 23.6395 434.308 23.1638 434.773 22.8187L433.58 21.2133ZM432.056 24.384C432.056 25.9666 432.759 27.2258 434.115 28.0286L435.134 26.3074C434.4 25.8729 434.056 25.276 434.056 24.384H432.056ZM434.115 28.0286C435.234 28.6908 436.972 29.4721 439.286 30.372L440.011 28.508C437.717 27.6159 436.105 26.8825 435.134 26.3074L434.115 28.0286ZM439.289 30.373C440.748 30.9358 441.991 31.5128 443.026 32.1013L444.015 30.3627C442.874 29.7138 441.536 29.0962 440.008 28.507L439.289 30.373ZM443.033 32.1054C444.076 32.6867 444.911 33.3132 445.555 33.9768L446.99 32.5832C446.184 31.7535 445.184 31.0146 444.008 30.3586L443.033 32.1054ZM445.555 33.9768C446.183 34.6227 446.638 35.3533 446.93 36.175L448.815 35.505C448.424 34.4067 447.813 33.4306 446.99 32.5832L445.555 33.9768ZM446.94 36.2004C447.249 37.0011 447.416 37.9625 447.416 39.104H449.416C449.416 37.7708 449.221 36.5563 448.805 35.4796L446.94 36.2004ZM447.416 39.104C447.416 40.9636 446.969 42.486 446.12 43.722L447.769 44.854C448.883 43.2314 449.416 41.2977 449.416 39.104H447.416ZM446.118 43.7247C445.29 44.9393 444.046 45.9039 442.319 46.5908L443.058 48.4492C445.086 47.6428 446.679 46.4527 447.771 44.8513L446.118 43.7247ZM442.315 46.5923C440.611 47.2779 438.474 47.64 435.872 47.64V49.64C438.647 49.64 441.054 49.2555 443.062 48.4477L442.315 46.5923Z" fill="white" mask="url(#path-1-outside-1_284_239)"/>
</svg>
